<svg width="94" height="84" viewBox="0 0 94 84" fill="none" xmlns="http://www.w3.org/2000/svg">
<circle cx="47.5" cy="34.5" r="34.5" fill="white"/>
<path d="M38.6888 45.36C36.7154 45.36 35.1154 44.6667 33.8888 43.28C32.7154 41.84 32.1288 39.9733 32.1288 37.68C32.1288 34.6933 33.0088 31.92 34.7688 29.36C36.5288 26.7467 38.7154 24.8 41.3288 23.52L41.8088 24.48C40.6888 25.3333 39.7021 26.4267 38.8488 27.76C37.9954 29.0933 37.3821 30.7467 37.0088 32.72L38.6888 33.12C40.5554 33.5467 41.9954 34.3467 43.0088 35.52C44.0754 36.64 44.6088 38 44.6088 39.6C44.6088 41.3067 44.0221 42.6933 42.8488 43.76C41.7288 44.8267 40.3421 45.36 38.6888 45.36ZM55.5688 45.36C53.5954 45.36 51.9954 44.6667 50.7688 43.28C49.5954 41.84 49.0088 39.9733 49.0088 37.68C49.0088 34.6933 49.8888 31.92 51.6488 29.36C53.4088 26.7467 55.5954 24.8 58.2088 23.52L58.6888 24.48C57.5688 25.3333 56.5821 26.4267 55.7288 27.76C54.8754 29.0933 54.2621 30.7467 53.8888 32.72L55.5688 33.12C57.4354 33.5467 58.8754 34.3467 59.8888 35.52C60.9554 36.64 61.4888 38 61.4888 39.6C61.4888 41.3067 60.9021 42.6933 59.7288 43.76C58.6088 44.8267 57.2221 45.36 55.5688 45.36Z" fill="#292F36"/>
</svg>
