<svg width="73" height="55" viewBox="0 0 73 55" fill="none" xmlns="http://www.w3.org/2000/svg">
<path d="M57.9996 2.73645e-05C62.3996 2.77492e-05 65.9996 1.46669 68.7996 4.40003C71.4663 7.33336 72.7996 11.2667 72.7996 16.2C72.7996 24.8667 69.9329 32.4 64.1996 38.8C58.3329 45.2 51.3329 50.4667 43.1996 54.6L41.1996 51.2C44.5329 49.0667 47.6663 46.3334 50.5996 43C53.3996 39.6667 55.5996 36.0667 57.1996 32.2L51.5996 28C49.3329 26.5334 47.4663 24.5334 45.9996 22C44.5329 19.6 43.7996 17.2667 43.7996 15C43.7996 10.7334 45.1329 7.13336 47.7996 4.20003C50.3329 1.40003 53.7329 2.69915e-05 57.9996 2.73645e-05ZM16.7996 2.37627e-05C21.1996 2.41474e-05 24.7996 1.46669 27.5996 4.40002C30.2663 7.33336 31.5996 11.2667 31.5996 16.2C31.5996 24.8667 28.7329 32.4 22.9996 38.8C17.1329 45.2 10.1329 50.4667 1.9996 54.6L-0.000395026 51.2C3.33294 49.0667 6.46627 46.3334 9.3996 43C12.1996 39.6667 14.3996 36.0667 15.9996 32.2L10.3996 28C8.13294 26.5334 6.26627 24.5334 4.79961 22C3.33294 19.6 2.59961 17.2667 2.59961 15C2.59961 10.7334 3.93294 7.13336 6.59961 4.20002C9.13294 1.40002 12.5329 2.33897e-05 16.7996 2.37627e-05Z" fill="#CDA274"/>
</svg>
