<svg width="117" height="48" viewBox="0 0 117 48" fill="none" xmlns="http://www.w3.org/2000/svg">
<path d="M0 29.2057V1.42338e-05H17.2008V29.1914H0V29.2057ZM15.1168 22.411L15.5593 19.185L13.9605 19.028L13.4752 21.5117C12.4759 22.0114 11.2483 22.254 9.77807 22.254C7.77963 22.254 6.19515 21.6259 5.03891 20.3555C3.8684 19.0851 3.29741 17.4149 3.29741 15.3309C3.29741 13.3039 3.8684 11.6338 4.99609 10.3205C6.12378 9.00725 7.60836 8.35062 9.44978 8.35062C10.3919 8.35062 11.1912 8.46481 11.8336 8.67893C12.476 8.89305 13.0612 9.17854 13.6179 9.54968L14.089 12.0049L15.7163 11.8479L15.2452 8.62183C14.5601 8.03658 13.7464 7.56552 12.8043 7.19438C11.8621 6.83752 10.6917 6.65195 9.30703 6.65195C7.66545 6.65195 6.25227 7.05163 5.06749 7.86528C3.8827 8.67893 2.95485 9.74952 2.29822 11.0771C1.64159 12.4189 1.31328 13.8606 1.31328 15.4022C1.31328 17.8432 2.06982 19.8844 3.58292 21.5117C5.09602 23.139 7.0659 23.9527 9.50685 23.9527C11.905 23.9527 13.775 23.4388 15.1168 22.411Z" fill="#292F36"/>
<path d="M23.0391 29.2057V0H30.4333V29.1914H23.0391V29.2057ZM23.8242 23.6957H29.6625V22.2255H27.6498V5.92393H23.7957V7.39421H25.8369V22.2255H23.8242V23.6957Z" fill="#292F36"/>
<path d="M36.2716 29.2057V0H49.2615V29.1914H36.2716V29.2057ZM38.6269 13.0755L38.213 15.7305L39.7118 15.9161L40.1543 13.9319C40.7967 13.6179 41.5247 13.4609 42.3811 13.4609C43.4089 13.4609 44.1084 13.7178 44.4652 14.2317C44.8221 14.7456 44.9934 15.4165 44.9934 16.2444V17.2722C44.6793 17.2436 44.351 17.2151 43.9942 17.2008C43.6373 17.1865 43.2947 17.1723 42.9521 17.1723C41.6674 17.1723 40.4398 17.4007 39.2978 17.8574C38.1559 18.3142 37.5849 19.2706 37.5849 20.7124C37.5849 21.94 37.9703 22.7822 38.7554 23.2389C39.5405 23.71 40.3113 23.9384 41.0679 23.9384C41.9957 23.9384 42.7951 23.6957 43.4517 23.2104C44.1083 22.7251 44.6222 22.1826 44.9934 21.5545V21.6116C45.0219 23.1676 45.7214 23.9384 47.0917 23.9384C47.6199 23.9384 48.1195 23.8099 48.5906 23.553L48.562 22.3682C48.3336 22.4681 48.0767 22.5252 47.7912 22.5252C47.1346 22.5252 46.8062 22.1113 46.8062 21.2833V15.8162C46.8062 13.2468 45.4359 11.9621 42.6952 11.9621C41.9386 11.9621 41.2249 12.0477 40.554 12.219C39.8688 12.4046 39.2264 12.6901 38.6269 13.0755ZM44.9791 19.3848C44.9077 20.3269 44.5223 21.0835 43.8229 21.6259C43.1234 22.1826 42.3811 22.4538 41.5818 22.4538C41.0821 22.4538 40.5968 22.3111 40.1401 22.0399C39.669 21.7687 39.4406 21.2548 39.4406 20.5125C39.4406 19.6132 39.7975 19.0422 40.4826 18.771C41.1821 18.4998 41.9529 18.3713 42.8236 18.3713C43.209 18.3713 43.5802 18.3856 43.937 18.4284C44.2939 18.457 44.6508 18.4855 44.9648 18.4998V19.3848H44.9791Z" fill="#292F36"/>
<path d="M55.114 29.2057V0H66.9191V29.1914H55.114V29.2057ZM65.6772 20.3698C65.6772 19.4562 65.4345 18.7853 64.9492 18.3428C64.4638 17.9003 63.8786 17.6005 63.1648 17.4292C62.4511 17.2579 61.7517 17.1152 61.0522 17.001C60.3528 16.8868 59.7533 16.7012 59.2679 16.4585C58.7826 16.2159 58.5399 15.7876 58.5399 15.1738C58.5399 14.5886 58.7683 14.1603 59.2393 13.8749C59.7104 13.5894 60.2957 13.4609 61.0237 13.4609C61.8659 13.4609 62.651 13.6465 63.379 14.0319L63.6645 15.8876L65.1633 15.702L64.8778 13.0184C64.3925 12.7186 63.8072 12.4759 63.1078 12.2761C62.4083 12.0763 61.666 11.9621 60.8667 11.9621C59.8103 11.9621 58.8397 12.219 57.9404 12.7186C57.0411 13.2182 56.5986 14.0747 56.5986 15.3023C56.5986 16.2016 56.8412 16.8582 57.3266 17.2722C57.8119 17.7004 58.4115 17.9859 59.1395 18.1572C59.8675 18.3285 60.5812 18.4712 61.2949 18.5997C62.0086 18.7139 62.6082 18.9138 63.0935 19.1707C63.5788 19.4276 63.8215 19.8702 63.8215 20.5125C63.8215 21.1691 63.5074 21.6545 62.8793 21.9685C62.2513 22.2826 61.5376 22.4396 60.7239 22.4396C59.8103 22.4396 58.9539 22.254 58.1688 21.8686L58.2402 20.3412L56.7984 20.1842L56.4416 22.7964C56.9412 23.1247 57.5978 23.396 58.3972 23.6101C59.1965 23.8242 59.9959 23.9384 60.8096 23.9384C62.1942 23.9384 63.3505 23.6244 64.2783 22.982C65.2061 22.3682 65.6772 21.4832 65.6772 20.3698Z" fill="#292F36"/>
<path d="M72.7574 29.2057V0H84.5624V29.1914H72.7574V29.2057ZM83.3205 20.3698C83.3205 19.4562 83.0778 18.7853 82.5925 18.3428C82.1071 17.9003 81.5219 17.6005 80.8082 17.4292C80.0944 17.2579 79.395 17.1152 78.6955 17.001C77.9961 16.8868 77.3966 16.7012 76.9112 16.4585C76.4259 16.2159 76.1832 15.7876 76.1832 15.1738C76.1832 14.5886 76.4116 14.1603 76.8827 13.8749C77.3537 13.5894 77.939 13.4609 78.667 13.4609C79.5092 13.4609 80.2943 13.6465 81.0223 14.0319L81.3078 15.8876L82.8066 15.702L82.5211 13.0184C82.0358 12.7186 81.4505 12.4759 80.7511 12.2761C80.0516 12.0763 79.3093 11.9621 78.51 11.9621C77.4537 11.9621 76.483 12.219 75.5837 12.7186C74.6844 13.2182 74.2419 14.0747 74.2419 15.3023C74.2419 16.2016 74.4846 16.8582 74.9699 17.2722C75.4552 17.7004 76.0548 17.9859 76.7828 18.1572C77.5108 18.3285 78.2245 18.4712 78.9382 18.5997C79.6519 18.7139 80.2515 18.9138 80.7368 19.1707C81.2221 19.4276 81.4648 19.8702 81.4648 20.5125C81.4648 21.1691 81.1508 21.6545 80.5227 21.9685C79.8946 22.2826 79.1809 22.4396 78.3673 22.4396C77.4537 22.4396 76.5972 22.254 75.8121 21.8686L75.8835 20.3412L74.4418 20.1842L74.0849 22.7964C74.5845 23.1247 75.2411 23.396 76.0405 23.6101C76.8399 23.8242 77.6393 23.9384 78.4529 23.9384C79.8375 23.9384 80.9938 23.6244 81.9216 22.982C82.8494 22.3682 83.3205 21.4832 83.3205 20.3698Z" fill="#292F36"/>
<path d="M90.4007 29.2057V0H98.1803V29.1914H90.4007V29.2057ZM91.5426 23.6957H97.381V22.2255H95.3682V12.2047H91.4998V13.675H93.5696V22.2255H91.5569V23.6957H91.5426ZM93.3698 6.88033V9.23563H95.3397V6.88033H93.3698Z" fill="#292F36"/>
<path d="M104.019 29.2057V0H116.452V29.1914H104.019V29.2057ZM115.338 19.8273L113.782 19.4847C113.44 21.4261 112.398 22.3967 110.685 22.3967C109.543 22.3967 108.672 22.0113 108.073 21.2405C107.473 20.4697 107.173 19.3848 107.173 18.0145C107.173 16.7726 107.444 15.7163 107.973 14.8312C108.501 13.9462 109.386 13.518 110.613 13.518C111.556 13.518 112.383 13.7321 113.069 14.1603L113.511 16.1017L115.01 15.9161L114.567 13.1468C113.982 12.7043 113.368 12.3903 112.726 12.219C112.084 12.0477 111.384 11.9621 110.628 11.9621C108.843 11.9621 107.487 12.5901 106.602 13.8463C105.703 15.1025 105.26 16.5299 105.26 18.1144C105.26 19.9558 105.732 21.3975 106.688 22.411C107.63 23.4388 108.9 23.9527 110.485 23.9527C112.069 23.9527 113.24 23.5102 113.982 22.6394C114.725 21.7544 115.181 20.8265 115.338 19.8273Z" fill="#292F36"/>
<path d="M7.43707 45.1503C7.10876 45.7498 6.62341 46.2209 5.99533 46.5492C5.35298 46.8775 4.59642 47.0488 3.7114 47.0488H1.15624V38.998H3.7114C4.59642 38.998 5.36725 39.155 5.99533 39.4833C6.62341 39.8116 7.10876 40.2684 7.43707 40.8822C7.76539 41.496 7.9224 42.1955 7.9224 43.0234C7.9224 43.8371 7.76539 44.5508 7.43707 45.1503ZM6.02387 45.3073C6.58057 44.7649 6.85181 44.0084 6.85181 43.0234C6.85181 42.0385 6.58057 41.2819 6.02387 40.7395C5.46716 40.1971 4.66778 39.9258 3.61147 39.9258H2.16977V46.121H3.61147C4.66778 46.121 5.46716 45.8498 6.02387 45.3073Z" fill="#292F36"/>
<path d="M13.2182 39.8402V42.5952H16.273V43.3945H13.2182V46.2066H16.6156V47.0488H12.1762V38.998H16.6156V39.8402H13.2182Z" fill="#292F36"/>
<path d="M25.6371 46.0212C25.4515 46.3495 25.1803 46.6207 24.8092 46.8205C24.438 47.0204 23.9812 47.1346 23.4245 47.1346C22.8964 47.1346 22.411 47.0346 21.9971 46.8491C21.5831 46.6492 21.2548 46.3923 20.9979 46.0497C20.7552 45.7071 20.6124 45.3217 20.5696 44.8935H21.683C21.7116 45.1219 21.783 45.3503 21.9114 45.5644C22.0399 45.7785 22.2397 45.9641 22.4824 46.1068C22.7251 46.2495 23.0248 46.3209 23.3817 46.3209C23.8385 46.3209 24.1954 46.2067 24.4381 45.9498C24.6807 45.6928 24.8092 45.3931 24.8092 45.0077C24.8092 44.6793 24.7235 44.4081 24.5522 44.2083C24.3809 44.0084 24.1668 43.8372 23.9241 43.723C23.6815 43.6088 23.3246 43.4803 22.8964 43.3375C22.3825 43.1662 21.9828 43.0092 21.6688 42.8665C21.3547 42.7237 21.0978 42.4953 20.8837 42.1956C20.6695 41.8958 20.5554 41.5104 20.5554 41.0251C20.5554 40.6111 20.6553 40.24 20.8551 39.9117C21.055 39.5976 21.3404 39.3407 21.7259 39.1694C22.097 38.9981 22.5538 38.9124 23.0534 38.9124C23.8385 38.9124 24.4808 39.098 24.9376 39.4834C25.4087 39.8688 25.6656 40.3542 25.7513 40.9537H24.6379C24.5808 40.6397 24.4095 40.3542 24.1525 40.1115C23.8813 39.8688 23.5245 39.7404 23.0677 39.7404C22.6537 39.7404 22.3111 39.8546 22.0685 40.0687C21.8115 40.2828 21.6973 40.5968 21.6973 40.9822C21.6973 41.2963 21.783 41.5532 21.94 41.7388C22.1113 41.9386 22.3111 42.0814 22.5538 42.1956C22.7965 42.3098 23.139 42.424 23.553 42.5667C24.0669 42.738 24.4808 42.895 24.8092 43.0521C25.1232 43.2091 25.3944 43.4375 25.6085 43.7372C25.8227 44.037 25.9369 44.451 25.9369 44.9648C25.9083 45.336 25.8227 45.6928 25.6371 46.0212Z" fill="#292F36"/>
<path d="M31.2042 38.998V47.0488H30.1621V38.998H31.2042Z" fill="#292F36"/>
<path d="M41.7388 39.6119C42.3811 40.0829 42.8094 40.711 43.0235 41.5104H41.9244C41.7388 41.0251 41.4105 40.6254 40.9679 40.3399C40.5254 40.0401 39.9973 39.8974 39.3835 39.8974C38.8411 39.8974 38.3414 40.0258 37.9132 40.2828C37.4849 40.5397 37.1424 40.8966 36.8854 41.3676C36.6428 41.8387 36.5143 42.3954 36.5143 43.0378C36.5143 43.6944 36.6428 44.2654 36.8854 44.7364C37.1281 45.2075 37.485 45.5786 37.9275 45.8356C38.37 46.0925 38.8839 46.221 39.4691 46.221C39.9687 46.221 40.4112 46.1068 40.8252 45.9069C41.2392 45.6928 41.5675 45.3788 41.8387 44.9791C42.1099 44.5794 42.2527 44.0941 42.3098 43.5516H39.1408V42.7808H43.1805V43.7372C43.1091 44.3796 42.9093 44.9506 42.581 45.4787C42.2527 46.0069 41.8102 46.4066 41.2535 46.7063C40.6967 47.0061 40.0686 47.1631 39.3549 47.1631C38.5841 47.1631 37.8989 46.9918 37.2994 46.6492C36.6998 46.3066 36.2431 45.8213 35.9147 45.1932C35.5864 44.5794 35.4151 43.8657 35.4151 43.0663C35.4151 42.2669 35.5864 41.5532 35.9147 40.9394C36.2431 40.3256 36.7141 39.826 37.2994 39.4834C37.8846 39.1408 38.5698 38.9552 39.3406 38.9552C40.3113 38.9267 41.0964 39.1551 41.7388 39.6119Z" fill="#292F36"/>
<path d="M53.7151 47.0488H52.6731L48.4906 40.6824V47.0488H47.4486V38.998H48.4906L52.6731 45.3644V38.998H53.7151V47.0488Z" fill="#292F36"/>
<path d="M68.7319 46.0212C68.5464 46.3495 68.2751 46.6207 67.904 46.8205C67.5328 47.0204 67.0761 47.1346 66.5194 47.1346C65.9912 47.1346 65.5059 47.0346 65.0919 46.8491C64.678 46.6492 64.3497 46.3923 64.0927 46.0497C63.85 45.7071 63.7073 45.3217 63.6645 44.8935H64.7779C64.8064 45.1219 64.8778 45.3503 65.0063 45.5644C65.1348 45.7785 65.3346 45.9641 65.5772 46.1068C65.8199 46.2495 66.1197 46.3209 66.4765 46.3209C66.9333 46.3209 67.2902 46.2067 67.5328 45.9498C67.7755 45.6928 67.904 45.3931 67.904 45.0077C67.904 44.6793 67.8184 44.4081 67.6471 44.2083C67.4758 44.0084 67.2616 43.8372 67.019 43.723C66.7763 43.6088 66.4195 43.4803 65.9912 43.3375C65.4774 43.1662 65.0776 43.0092 64.7636 42.8665C64.4495 42.7237 64.1926 42.4953 63.9785 42.1956C63.7644 41.8958 63.6502 41.5104 63.6502 41.0251C63.6502 40.6111 63.7501 40.24 63.9499 39.9117C64.1498 39.5976 64.4353 39.3407 64.8207 39.1694C65.1919 38.9981 65.6486 38.9124 66.1482 38.9124C66.9333 38.9124 67.5757 39.098 68.0325 39.4834C68.5036 39.8688 68.7605 40.3542 68.8462 40.9537H67.7327C67.6756 40.6397 67.5043 40.3542 67.2473 40.1115C66.9761 39.8688 66.6193 39.7404 66.1625 39.7404C65.7486 39.7404 65.406 39.8546 65.1633 40.0687C64.9064 40.2828 64.7921 40.5968 64.7921 40.9822C64.7921 41.2963 64.8778 41.5532 65.0348 41.7388C65.2061 41.9386 65.4059 42.0814 65.6486 42.1956C65.8913 42.3098 66.2339 42.424 66.6478 42.5667C67.1617 42.738 67.5757 42.895 67.904 43.0521C68.218 43.2091 68.4892 43.4375 68.7034 43.7372C68.9175 44.037 69.0316 44.451 69.0316 44.9648C69.0031 45.336 68.9175 45.6928 68.7319 46.0212Z" fill="#292F36"/>
<path d="M78.196 38.998V39.8402H75.9263V47.0488H74.87V39.8402H72.6003V38.998H78.196Z" fill="#292F36"/>
<path d="M83.0492 38.998V43.8228C83.0492 44.6079 83.2205 45.1931 83.5774 45.5786C83.9343 45.9497 84.4053 46.1495 85.0334 46.1495C85.6472 46.1495 86.1183 45.964 86.4609 45.5786C86.8035 45.1931 86.9747 44.6222 86.9747 43.8371V39.0123H88.0168V43.8371C88.0168 44.9362 87.7456 45.7641 87.2032 46.3066C86.6608 46.8633 85.9327 47.1345 85.0191 47.1345C84.1199 47.1345 83.3919 46.8633 82.8495 46.3066C82.307 45.7498 82.0358 44.9362 82.0358 43.8371V39.0123H83.0492V38.998Z" fill="#292F36"/>
<path d="M98.7655 45.1503C98.4372 45.7498 97.9519 46.2209 97.3238 46.5492C96.6814 46.8775 95.9249 47.0488 95.0399 47.0488H92.4848V38.998H95.0399C95.9249 38.998 96.6957 39.155 97.3238 39.4833C97.9519 39.8116 98.4372 40.2684 98.7655 40.8822C99.0938 41.496 99.2509 42.1955 99.2509 43.0234C99.2509 43.8371 99.0938 44.5508 98.7655 45.1503ZM97.3666 45.3073C97.9234 44.7649 98.1946 44.0084 98.1946 43.0234C98.1946 42.0385 97.9234 41.2819 97.3666 40.7395C96.8099 40.1971 96.0106 39.9258 94.9542 39.9258H93.5125V46.121H94.9542C95.9963 46.121 96.8099 45.8498 97.3666 45.3073Z" fill="#292F36"/>
<path d="M104.561 38.998V47.0488H103.519V38.998H104.561Z" fill="#292F36"/>
<path d="M114.782 39.4263C115.381 39.7832 115.852 40.2685 116.195 40.8966C116.537 41.5247 116.709 42.2384 116.709 43.0235C116.709 43.8086 116.537 44.5223 116.195 45.1504C115.852 45.7785 115.381 46.2638 114.782 46.6207C114.182 46.9775 113.511 47.1488 112.769 47.1488C112.027 47.1488 111.341 46.9775 110.742 46.6207C110.142 46.2638 109.657 45.7785 109.314 45.1504C108.972 44.5223 108.801 43.8086 108.801 43.0235C108.801 42.2384 108.972 41.5247 109.314 40.8966C109.657 40.2685 110.128 39.7832 110.742 39.4263C111.356 39.0694 112.027 38.8981 112.769 38.8981C113.511 38.8981 114.182 39.0694 114.782 39.4263ZM111.27 40.2542C110.828 40.5112 110.485 40.868 110.242 41.3534C110 41.8244 109.871 42.3811 109.871 43.0235C109.871 43.6516 110 44.2083 110.242 44.6936C110.485 45.1789 110.828 45.5358 111.27 45.7927C111.713 46.0497 112.198 46.1782 112.755 46.1782C113.297 46.1782 113.797 46.0497 114.239 45.7927C114.682 45.5358 115.024 45.1647 115.267 44.6936C115.51 44.2225 115.638 43.6658 115.638 43.0378C115.638 42.3954 115.51 41.8387 115.267 41.3676C115.024 40.8966 114.682 40.5254 114.239 40.2685C113.797 40.0116 113.311 39.8831 112.755 39.8831C112.212 39.8688 111.713 39.9973 111.27 40.2542Z" fill="#292F36"/>
</svg>
