<svg width="132" height="43" viewBox="0 0 132 43" fill="none" xmlns="http://www.w3.org/2000/svg">
<path d="M11.6337 0V0.18557L10.8629 0.371138V8.59327L11.6337 8.77884V8.96441H7.97946V8.77884L8.7503 8.59327V1.58447L5.7241 9.09288H5.33866L1.41317 1.58447V8.39343L2.44093 8.77884V8.96441H0V8.77884L1.02777 8.39343V0.371138L0.256931 0.18557V0H1.85567C2.09834 0 2.31246 0.0285483 2.48376 0.0856465C2.65505 0.142745 2.82637 0.214117 2.95484 0.314039C3.09758 0.413961 3.21178 0.528159 3.3117 0.65663C3.41162 0.785101 3.49728 0.94212 3.58292 1.09914L6.38072 6.45209L8.5219 1.09914C8.59327 0.913571 8.66466 0.756551 8.76459 0.62808C8.85023 0.499609 8.9644 0.385414 9.09287 0.285492C9.22134 0.18557 9.37839 0.114195 9.56396 0.0713716C9.74953 0.028548 9.9779 0 10.2634 0H11.6337Z" fill="#292F36"/>
<path d="M16.2016 2.38393C16.7297 2.38393 17.2151 2.45531 17.629 2.61232C18.043 2.76934 18.3999 2.99774 18.6996 3.28323C18.9994 3.58299 19.2135 3.93986 19.3705 4.35382C19.5276 4.76778 19.5989 5.25311 19.5989 5.78127C19.5989 6.30943 19.5276 6.79476 19.3705 7.20872C19.2135 7.62269 18.9851 7.97955 18.6996 8.27931C18.3999 8.57908 18.043 8.7932 17.629 8.95022C17.2151 9.10724 16.7297 9.17861 16.2016 9.17861C15.6734 9.17861 15.1881 9.10724 14.7741 8.95022C14.3602 8.7932 14.0033 8.56481 13.7035 8.27931C13.4038 7.97955 13.1897 7.62269 13.0326 7.20872C12.8756 6.79476 12.8042 6.30943 12.8042 5.78127C12.8042 5.25311 12.8756 4.76778 13.0326 4.35382C13.1897 3.93986 13.418 3.58299 13.7035 3.28323C14.0033 2.98346 14.3602 2.76934 14.7741 2.61232C15.1881 2.45531 15.6592 2.38393 16.2016 2.38393ZM16.2016 8.93594C16.3443 8.93594 16.4871 8.89312 16.6441 8.7932C16.7868 8.69328 16.9153 8.53626 17.0295 8.29359C17.1437 8.05092 17.2436 7.73688 17.315 7.3372C17.3864 6.92323 17.4292 6.40935 17.4292 5.79555C17.4292 5.16747 17.3864 4.65358 17.315 4.2539C17.2436 3.85421 17.1437 3.52589 17.0295 3.2975C16.9153 3.06911 16.7868 2.89782 16.6441 2.7979C16.5013 2.69797 16.3586 2.65515 16.2016 2.65515C16.0588 2.65515 15.9161 2.69797 15.7591 2.7979C15.6163 2.89782 15.4878 3.05483 15.3736 3.2975C15.2594 3.54017 15.1595 3.85421 15.0882 4.2539C15.0168 4.66786 14.974 5.18174 14.974 5.79555C14.974 6.42362 15.0168 6.93751 15.0882 7.3372C15.1595 7.73688 15.2594 8.0652 15.3736 8.29359C15.4878 8.52198 15.6163 8.69328 15.7591 8.7932C15.9018 8.87885 16.0446 8.93594 16.2016 8.93594Z" fill="#292F36"/>
<path d="M25.8369 2.24623e-05C26.6077 2.24623e-05 26.9931 0.385434 26.9931 1.15626V8.60757L27.764 8.79314V8.97871H26.6077C26.2937 8.97871 26.051 8.93588 25.8654 8.83596C25.6799 8.73604 25.5228 8.62184 25.4229 8.50765C25.2944 8.3649 25.1946 8.19361 25.1375 8.02231C25.0233 8.2507 24.8805 8.43627 24.7092 8.60757C24.5664 8.75031 24.3666 8.87878 24.1239 9.00725C23.8813 9.13572 23.5958 9.19282 23.2675 9.19282C22.8963 9.19282 22.5537 9.12145 22.2397 8.97871C21.9114 8.83596 21.6402 8.62184 21.4118 8.33635C21.1834 8.05086 20.9836 7.694 20.8551 7.28004C20.7124 6.8518 20.6552 6.36646 20.6552 5.79548C20.6552 5.2245 20.7266 4.73917 20.8551 4.31093C20.9978 3.8827 21.1834 3.54011 21.4403 3.25462C21.683 2.96913 21.9828 2.75501 22.3254 2.61226C22.668 2.46952 23.0534 2.39814 23.4816 2.39814C23.71 2.39814 23.9098 2.42669 24.0954 2.46952C24.281 2.52661 24.438 2.58371 24.5664 2.65509C24.7235 2.72646 24.8519 2.81211 24.9661 2.91203V0.413985L24.1953 0.228415V0.042847H25.8369V2.24623e-05ZM24.9376 3.28316C24.8377 3.18324 24.752 3.0976 24.6378 3.02623C24.5379 2.95485 24.438 2.89775 24.3238 2.84065C24.2096 2.78356 24.0954 2.76928 23.9669 2.76928C23.8099 2.76928 23.6529 2.81211 23.5101 2.89775C23.3674 2.9834 23.2532 3.12615 23.139 3.34026C23.0391 3.55438 22.9534 3.86842 22.8963 4.25383C22.8392 4.65352 22.8107 5.15313 22.8107 5.78121C22.8107 6.39501 22.8392 6.88035 22.8963 7.26576C22.9534 7.65117 23.0248 7.95094 23.1247 8.16506C23.2104 8.37917 23.3103 8.53619 23.4388 8.60757C23.553 8.67894 23.6672 8.72176 23.7814 8.72176C23.9812 8.72176 24.1525 8.66467 24.2952 8.56474C24.438 8.46482 24.5522 8.33635 24.6521 8.20788C24.7663 8.05086 24.8662 7.87956 24.9519 7.694V3.28316H24.9376Z" fill="#292F36"/>
<path d="M32.0606 9.1929C30.9614 9.1929 30.105 8.89313 29.5055 8.2936C28.8917 7.69407 28.5919 6.85188 28.5919 5.79556C28.5919 5.2674 28.6632 4.78207 28.8203 4.36811C28.9773 3.95414 29.1914 3.59728 29.4626 3.29752C29.7339 2.99775 30.0621 2.78363 30.4618 2.62661C30.8472 2.46959 31.2755 2.39822 31.7465 2.39822C32.2319 2.39822 32.6601 2.46959 33.0313 2.59806C33.4167 2.74081 33.7307 2.92638 34.0019 3.15477C34.2731 3.38316 34.473 3.65438 34.6157 3.96842C34.7585 4.28246 34.8298 4.61077 34.8298 4.96764C34.8298 5.08183 34.8299 5.19603 34.8156 5.28168C34.8013 5.36732 34.787 5.45297 34.7728 5.52434C34.7442 5.60999 34.7299 5.68136 34.7014 5.73846C34.3302 5.80983 33.9305 5.88121 33.5023 5.92403C33.1454 5.98113 32.7315 6.02395 32.2604 6.0525C31.7894 6.08105 31.304 6.1096 30.7902 6.1096C30.7902 6.63776 30.833 7.08027 30.9043 7.43713C30.9757 7.794 31.0899 8.07948 31.2184 8.27933C31.3611 8.49345 31.5181 8.63619 31.7037 8.72184C31.8893 8.80749 32.1034 8.85031 32.3175 8.85031C32.5745 8.85031 32.8171 8.80749 33.0455 8.70757C33.2739 8.60764 33.4738 8.49345 33.6308 8.33643C33.8021 8.17941 33.9305 7.99384 34.0305 7.794C34.1304 7.59415 34.1732 7.39431 34.1732 7.18019H34.4873C34.4873 7.43713 34.4302 7.6798 34.316 7.92246C34.2018 8.16513 34.0305 8.37925 33.8164 8.56482C33.6022 8.75039 33.3453 8.89313 33.0455 9.00733C32.76 9.1358 32.4317 9.1929 32.0606 9.1929ZM30.7759 5.78128C31.0614 5.78128 31.3183 5.78129 31.5467 5.76701C31.7751 5.75274 31.9607 5.73846 32.1177 5.72419C32.3032 5.70991 32.446 5.68136 32.5745 5.66709C32.5888 5.58144 32.6173 5.48152 32.6316 5.3816C32.6459 5.28168 32.6601 5.18175 32.6744 5.06756C32.6887 4.95336 32.6887 4.82489 32.6887 4.69642C32.6887 4.31101 32.6601 3.98269 32.603 3.72575C32.5459 3.46881 32.4745 3.25469 32.3746 3.0834C32.289 2.92638 32.189 2.79791 32.0606 2.74081C31.9321 2.68371 31.8322 2.64089 31.718 2.64089C31.6038 2.64089 31.4896 2.68371 31.3754 2.76936C31.2612 2.85501 31.1613 3.01203 31.0614 3.22614C30.9757 3.45454 30.8901 3.76858 30.833 4.18254C30.7759 4.5965 30.7759 5.12466 30.7759 5.78128Z" fill="#292F36"/>
<path d="M40.2256 2.82639C39.9687 2.82639 39.7403 2.88349 39.5405 2.98341C39.3406 3.08334 39.1693 3.21181 39.0266 3.34028C38.8695 3.4973 38.741 3.66859 38.6126 3.85416V8.60758L39.3834 8.79315V8.97872H35.7862V8.79315L36.5571 8.60758V2.95486L35.7862 2.7693V2.58373H36.9425C37.2422 2.58373 37.4849 2.64083 37.6847 2.74075C37.8703 2.84067 38.0273 2.95486 38.1415 3.06906C38.27 3.21181 38.3699 3.36883 38.427 3.54012C38.5555 3.35455 38.7125 3.18326 38.8981 3.02624C39.0551 2.89777 39.255 2.78357 39.4976 2.66938C39.7403 2.55518 40.0115 2.51235 40.3398 2.51235C40.7966 2.51235 41.1392 2.62655 41.3676 2.82639C41.596 3.04051 41.6959 3.34028 41.6959 3.72569C41.6959 4.01118 41.6102 4.25385 41.4389 4.42514C41.2677 4.59644 41.025 4.68208 40.7395 4.68208C40.6681 4.68208 40.611 4.68208 40.5396 4.68208C40.4683 4.68208 40.4255 4.66781 40.3826 4.66781C40.3256 4.65354 40.2684 4.65353 40.2256 4.62499V2.82639Z" fill="#292F36"/>
<path d="M47.2201 4.49655C47.2201 4.21106 47.1916 3.95412 47.1345 3.74C47.0774 3.52588 47.006 3.35459 46.9061 3.22612C46.8205 3.08337 46.7206 2.98345 46.5921 2.92635C46.4779 2.86925 46.3637 2.82643 46.2495 2.82643C46.0496 2.82643 45.8783 2.88353 45.7356 2.98345C45.5929 3.08337 45.4644 3.21184 45.3787 3.34031C45.2645 3.49733 45.1789 3.66863 45.0932 3.8542V8.60762L45.8641 8.79319V8.97876H42.2669V8.79319L43.0377 8.60762V2.9549L42.2669 2.76933V2.58376H43.4231C43.7229 2.58376 43.9655 2.64086 44.1654 2.74078C44.351 2.8407 44.508 2.9549 44.6222 3.0691C44.7507 3.21184 44.8506 3.36886 44.9077 3.54016C45.0219 3.32604 45.1646 3.12619 45.3359 2.9549C45.4787 2.81215 45.6785 2.68369 45.9069 2.55521C46.1353 2.42674 46.435 2.36964 46.7776 2.36964C47.1488 2.36964 47.4914 2.42674 47.7911 2.55521C48.1052 2.66941 48.3621 2.84071 48.5762 3.02627C48.7903 3.22612 48.9617 3.44023 49.0901 3.69718C49.2186 3.95412 49.2757 4.21106 49.2757 4.48227V8.59334L50.0465 8.77891V8.96448H48.3764C47.6056 8.96448 47.2201 8.57907 47.2201 7.80824V4.49655Z" fill="#292F36"/>
<path d="M1.35607 18.0002V17.472H11.2769V18.0002L9.19278 18.5284V29.3056H16.6726V18.5284L14.5886 18.0002V17.472H24.5094V18.0002L22.4253 18.5284V40.7966L24.5094 41.3248V41.8529H14.5886V41.3105L16.6726 40.7824V30.1764H9.19278V40.7824L11.2769 41.3105V41.8387H1.35607V41.3105L3.44014 40.7824V18.5141L1.35607 18.0002Z" fill="#292F36"/>
<path d="M36.8425 23.9099C38.2843 23.9099 39.569 24.124 40.7109 24.5379C41.8529 24.9519 42.8093 25.5657 43.6087 26.3651C44.408 27.1645 45.0218 28.1351 45.4358 29.2771C45.8498 30.4191 46.0639 31.7038 46.0639 33.1455C46.0639 34.5872 45.8498 35.8719 45.4358 37.0139C45.0218 38.1559 44.408 39.1122 43.6087 39.9116C42.8093 40.711 41.8386 41.3248 40.7109 41.7388C39.569 42.1527 38.2843 42.3668 36.8425 42.3668C35.4008 42.3668 34.1161 42.1527 32.9742 41.7388C31.8322 41.3248 30.8758 40.711 30.0764 39.9116C29.2771 39.1122 28.6633 38.1416 28.2493 37.0139C27.8353 35.8719 27.6212 34.5872 27.6212 33.1455C27.6212 31.7038 27.8353 30.4191 28.2493 29.2771C28.6633 28.1351 29.2771 27.1787 30.0764 26.3651C30.8758 25.5514 31.8465 24.9519 32.9742 24.5379C34.1161 24.124 35.4008 23.9099 36.8425 23.9099ZM36.8425 41.6531C37.2422 41.6531 37.6277 41.5246 38.0274 41.2677C38.427 41.0108 38.7696 40.5683 39.0837 39.9259C39.3977 39.2835 39.6547 38.4128 39.8545 37.3137C40.0543 36.2145 40.1543 34.8156 40.1543 33.1169C40.1543 31.4183 40.0543 30.0194 39.8545 28.9202C39.6547 27.8211 39.3977 26.9503 39.0837 26.308C38.7696 25.6656 38.4128 25.2231 38.0274 24.9662C37.6419 24.7092 37.2422 24.5808 36.8425 24.5808C36.4429 24.5808 36.0575 24.7092 35.6578 24.9662C35.2581 25.2231 34.9155 25.6656 34.6014 26.308C34.2874 26.9503 34.0305 27.8211 33.8306 28.9202C33.6308 30.0194 33.5308 31.4183 33.5308 33.1169C33.5308 34.8156 33.6308 36.2145 33.8306 37.3137C34.0305 38.4128 34.2874 39.2835 34.6014 39.9259C34.9155 40.5683 35.2724 41.0108 35.6578 41.2677C36.0575 41.5246 36.4429 41.6531 36.8425 41.6531Z" fill="#292F36"/>
<path d="M72.1435 29.6482C72.1435 28.8203 72.0721 28.1066 71.9294 27.5498C71.7866 26.9931 71.6153 26.5221 71.3869 26.1652C71.1585 25.8084 70.9159 25.5514 70.6589 25.3801C70.3877 25.2231 70.1308 25.1375 69.8738 25.1375C69.4313 25.1375 69.0459 25.2802 68.7033 25.5657C68.3607 25.8512 68.0752 26.1795 67.8183 26.5221C67.5471 26.936 67.2901 27.4071 67.0903 27.9067V40.7823L69.1887 41.3105V41.8387H59.4534V41.3105L61.5375 40.7823V29.6482C61.5375 28.8203 61.4661 28.1066 61.3234 27.5498C61.1806 26.9931 61.0093 26.5221 60.7809 26.1652C60.5525 25.8084 60.3099 25.5514 60.053 25.3801C59.7817 25.2231 59.5248 25.1375 59.2678 25.1375C58.8253 25.1375 58.4399 25.2802 58.0974 25.5657C57.7548 25.8512 57.4692 26.1795 57.2123 26.5221C56.9268 26.936 56.6842 27.4071 56.4843 27.9067V40.7823L58.5684 41.3105V41.8387H48.8331V41.3105L50.9173 40.7823V25.48L48.8331 24.9519V24.4237H51.9593C52.7729 24.4237 53.4438 24.5665 53.9577 24.8377C54.4859 25.1089 54.8856 25.4229 55.1996 25.737C55.5422 26.1367 55.7991 26.5649 55.9704 27.0217C56.2702 26.4364 56.6413 25.9226 57.0838 25.4515C57.4835 25.0518 57.9689 24.6949 58.5399 24.3666C59.1251 24.0383 59.8246 23.8813 60.6668 23.8813C62.0514 23.8813 63.2647 24.1953 64.2639 24.8091C65.2774 25.4229 66.0483 26.2223 66.5764 27.193C66.8762 26.5935 67.2473 26.051 67.6898 25.5514C68.0895 25.1375 68.5748 24.752 69.1458 24.4094C69.7311 24.0669 70.4305 23.8813 71.2727 23.8813C72.2291 23.8813 73.0856 24.0383 73.885 24.3381C74.6701 24.6378 75.3552 25.0518 75.9262 25.58C76.4972 26.1081 76.9397 26.7077 77.2538 27.4071C77.5678 28.1066 77.7248 28.8488 77.7248 29.6339V40.7681L79.8089 41.2962V41.8244H75.2839C73.1998 41.8244 72.1577 40.7823 72.1577 38.6983V29.6482H72.1435Z" fill="#292F36"/>
<path d="M91.2857 42.3526C88.3166 42.3526 86.0041 41.5389 84.3625 39.8973C82.7209 38.2558 81.893 36.0147 81.893 33.1312C81.893 31.6895 82.1071 30.4048 82.5211 29.2628C82.935 28.1208 83.5203 27.1644 84.2626 26.3508C85.0048 25.5514 85.9042 24.9376 86.9605 24.5237C88.0168 24.1097 89.173 23.8956 90.4149 23.8956C91.7139 23.8956 92.8844 24.0811 93.9122 24.4523C94.9399 24.8234 95.8249 25.323 96.5387 25.9511C97.2524 26.5792 97.8091 27.3215 98.1945 28.1637C98.5799 29.0059 98.7655 29.9052 98.7655 30.8615C98.7655 31.1899 98.7512 31.4754 98.7084 31.718C98.6656 31.9607 98.637 32.1748 98.5799 32.3604C98.5085 32.5888 98.4515 32.7886 98.4086 32.9456C97.3809 33.1598 96.3103 33.331 95.1683 33.4738C94.1977 33.6165 93.0699 33.7307 91.7995 33.8449C90.5291 33.9449 89.1873 34.0019 87.8027 34.0019C87.8027 35.4437 87.9026 36.6427 88.1167 37.5991C88.3308 38.5555 88.6163 39.3264 88.9874 39.8973C89.3586 40.4683 89.8011 40.868 90.3149 41.1107C90.8288 41.3533 91.3856 41.4818 91.9851 41.4818C92.6845 41.4818 93.3412 41.3533 93.955 41.0964C94.5688 40.8395 95.0969 40.4969 95.5537 40.0686C96.0105 39.6404 96.3674 39.1551 96.6386 38.6126C96.9098 38.0702 97.0383 37.5135 97.0383 36.9568H97.909C97.909 37.6562 97.752 38.3271 97.438 38.9695C97.1239 39.6261 96.6814 40.1971 96.0962 40.6967C95.5109 41.1963 94.8257 41.596 94.0121 41.8958C93.1842 42.1955 92.2706 42.3526 91.2857 42.3526ZM87.8027 33.1312C88.5878 33.1312 89.2872 33.1169 89.8867 33.0741C90.4863 33.0313 91.0002 33.0027 91.4141 32.9599C91.8995 32.9171 92.3134 32.86 92.6703 32.7886C92.7131 32.5602 92.7702 32.3033 92.8416 32.0178C92.8844 31.7608 92.9272 31.4754 92.9557 31.1613C92.9843 30.8473 93.0129 30.519 93.0129 30.1764C93.0129 29.1343 92.9272 28.2636 92.7702 27.5499C92.6132 26.8361 92.399 26.2652 92.1564 25.8226C91.9137 25.3801 91.6282 25.0661 91.3285 24.8805C91.0144 24.695 90.7004 24.595 90.4006 24.595C90.1008 24.595 89.7868 24.7092 89.4728 24.9233C89.1587 25.1517 88.8875 25.5657 88.6449 26.1795C88.4022 26.7933 88.2024 27.6641 88.0311 28.7775C87.8883 29.8909 87.8027 31.3469 87.8027 33.1312Z" fill="#292F36"/>
<path d="M115.852 41.4818V27.3643L103.376 17.4863V41.4818H115.852Z" fill="#292F36"/>
<path d="M131.283 41.4818V27.3643L119.007 17.4863V41.4818H131.283Z" fill="#292F36"/>
</svg>
