<svg width="145" height="45" viewBox="0 0 145 45" fill="none" xmlns="http://www.w3.org/2000/svg">
<path d="M20.2413 8.82893L21.3119 8.60054C21.5831 8.60054 21.8115 8.65764 21.9685 8.77184C22.1255 8.88603 22.2112 9.00023 22.2112 9.10015C22.2112 9.20007 22.1826 9.35709 22.1398 9.54266C22.097 9.72823 21.6973 11.641 20.955 15.2525C20.2127 18.8639 19.6703 21.5618 19.3277 23.3319C20.9836 21.0765 22.9249 18.3072 25.1375 15.0098C27.35 11.7124 28.649 9.52838 29.0201 8.44352C29.1343 8.10093 29.2913 7.84399 29.4769 7.65842C29.6625 7.47285 29.8338 7.35866 29.9765 7.33011C30.1193 7.30156 30.3477 7.27301 30.6474 7.27301C30.9472 7.27301 31.3041 7.34438 31.718 7.47285C32.132 7.60132 32.3461 7.81544 32.3461 8.12948C32.3461 8.70046 31.4896 10.3706 29.7909 13.1113C28.0923 15.852 26.1367 18.764 23.9384 21.8473C21.7401 24.9306 19.913 27.3716 18.4427 29.1701C18.1858 29.4842 17.8574 29.6555 17.4863 29.6555C17.1152 29.6555 16.7155 29.5841 16.3015 29.4556C15.8876 29.3272 15.6734 29.0988 15.6734 28.7562C15.6734 27.6856 16.6155 22.5182 18.4998 13.2826C16.8868 15.3667 14.9312 18.2787 12.633 22.0043C10.2348 25.8585 8.87876 28.2566 8.56472 29.1701C8.39343 29.7269 8.19359 30.0552 7.96519 30.1408C7.80817 30.2122 7.63687 30.2407 7.46558 30.2407L6.30934 30.3692C6.08095 30.3692 5.8811 30.3121 5.68126 30.1836C5.49569 30.0552 5.39577 29.9267 5.39577 29.784C5.39577 29.3985 5.93821 28.228 7.0088 26.2867C8.07939 24.3454 9.34982 22.2327 10.7915 19.9488C12.2333 17.6649 13.7321 15.4523 15.3023 13.2969C16.8725 11.1414 18.0858 9.6854 18.9423 8.9574C19.1136 8.80038 19.3135 8.72901 19.5418 8.72901L20.2413 8.82893Z" fill="#292F36"/>
<path d="M37.3993 18.5072C38.1416 18.5072 38.5127 18.7641 38.5127 19.2637C38.5127 19.535 38.4556 19.7348 38.3271 19.8633C38.1986 19.9917 37.9274 20.4057 37.5135 21.1337C37.0995 21.8474 36.6427 22.761 36.1431 23.8887C35.6435 25.0021 35.3152 25.9585 35.1725 26.7436C35.1439 26.8435 35.1296 26.972 35.1296 27.1576C35.1296 27.7 35.2724 27.9569 35.5721 27.9569C35.8719 27.9569 36.2145 27.8142 36.6142 27.543C37.0139 27.2575 37.3707 26.972 37.6848 26.6437C37.9988 26.3296 38.2986 26.0013 38.5983 25.673C38.8981 25.3447 39.0694 25.1449 39.1265 25.102C39.1836 25.0592 39.2692 25.0307 39.3834 25.0307C39.569 25.0307 39.6832 25.1734 39.726 25.4589C39.7689 25.7444 39.7831 26.0299 39.7831 26.3439C39.7831 26.658 39.7546 26.8578 39.6975 26.972C39.412 27.5287 38.7982 28.1996 37.8275 28.9847C36.8711 29.7698 35.9861 30.1552 35.201 30.1552C34.4159 30.1552 33.8307 29.9125 33.4738 29.4415C33.1169 28.9704 32.9171 28.428 32.9171 27.857C32.9171 27.2718 33.017 26.7722 33.2169 26.3296C32.4032 27.386 31.4753 28.271 30.4333 29.0133C29.377 29.7413 28.5348 30.1124 27.8639 30.1124C27.193 30.1124 26.6648 29.9125 26.2366 29.5129C25.6942 29.0133 25.4372 28.3281 25.4372 27.4431C25.4372 26.558 25.6371 25.673 26.0367 24.7737C26.4364 23.8887 26.9503 23.0608 27.5927 22.3328C28.235 21.5905 28.9488 20.9196 29.7196 20.3201C31.3326 19.0496 32.8314 18.4215 34.2018 18.4215C34.7299 18.4215 35.1582 18.5072 35.4865 18.6785C35.8148 18.8498 36.0289 19.0782 36.1146 19.3351C36.343 18.9783 36.5428 18.7641 36.7141 18.6642C36.8426 18.55 37.0852 18.5072 37.3993 18.5072ZM35.4579 20.1345C33.7878 20.1345 32.0606 21.0623 30.2763 22.918C29.6482 23.5889 29.063 24.374 28.5205 25.3019C27.9781 26.2297 27.7211 26.8578 27.7211 27.2004C27.7211 27.543 27.8211 27.7143 28.0209 27.7143C28.2921 27.7143 29.0487 27.1718 30.3048 26.1013C31.561 25.0307 32.3889 24.2313 32.7886 23.7174C33.2454 23.1464 34.1304 21.9474 35.4579 20.1345Z" fill="#292F36"/>
<path d="M48.5049 10.7702L49.1044 10.913C49.19 10.913 49.2757 10.9558 49.3328 11.0415C49.4042 11.1271 49.4327 11.2128 49.4327 11.2841C49.4327 11.3555 49.3328 11.5696 49.1187 11.9122C48.9046 12.2548 48.6762 12.6402 48.3907 13.0684C48.1052 13.4967 47.9624 13.7393 47.9482 13.7822C48.7047 13.7251 49.2472 13.6965 49.5612 13.6965C49.8752 13.6965 50.0893 13.7251 50.2178 13.7679C50.332 13.8107 50.4748 13.9392 50.6175 14.139C50.7745 14.3389 50.903 14.4959 51.0315 14.5958C51.1599 14.6957 51.217 14.8528 51.217 15.0526C51.217 15.2524 51.0886 15.438 50.8459 15.5665C50.6032 15.7092 50.332 15.7949 50.0465 15.8234C47.7769 16.0518 46.535 16.166 46.3066 16.1803C45.5215 17.3936 44.4081 19.2779 42.9949 21.833C41.5817 24.3882 40.8252 26.0012 40.7395 26.6435C40.6967 26.9433 40.6824 27.1717 40.6824 27.3573C40.6824 27.7427 40.8823 27.9282 41.282 27.9282C41.6816 27.9282 42.1241 27.7712 42.6095 27.4715C43.0948 27.1574 43.5516 26.8291 43.9513 26.4722C45.0504 25.5016 45.6357 25.002 45.7071 25.002C45.964 25.002 46.0925 25.4445 46.0925 26.3152C46.0925 26.7863 45.8784 27.2145 45.4359 27.5999C44.4509 28.4421 43.623 29.0845 42.9521 29.5127C42.2812 29.9409 41.6103 30.1551 40.9251 30.1551C40.7824 30.1551 40.6396 30.1408 40.5111 30.1122C39.726 29.9695 39.155 29.684 38.7982 29.2558C38.427 28.8275 38.2558 28.2566 38.2558 27.5428C38.2558 26.8291 38.4699 25.9441 38.8981 24.9163C39.3264 23.8885 39.8545 22.7894 40.4969 21.6332C41.5532 19.7347 42.6095 17.9646 43.6515 16.3088L43.0948 16.3801C41.9671 16.5086 41.3105 16.5657 41.1249 16.5657H40.9965C40.711 16.5657 40.4398 16.5086 40.1828 16.3944C39.9259 16.2802 39.7831 16.1375 39.7831 15.9805C39.7831 15.8092 39.8545 15.6521 39.9973 15.4951C40.14 15.3381 40.2256 15.2096 40.2542 15.124C40.3256 14.9099 40.5825 14.6672 41.025 14.4103C41.4675 14.1533 41.7958 14.0106 42.0242 13.9963C42.2526 13.982 42.4667 13.9677 42.6809 13.9535C42.895 13.9392 43.1234 13.9392 43.3803 13.9249C43.6373 13.9106 43.8371 13.9106 43.9798 13.8964L45.2931 13.8393C46.1068 12.6117 46.6777 11.8123 46.9775 11.4697C47.2915 11.1128 47.4628 10.9273 47.5057 10.8987C47.5485 10.8702 47.6484 10.8416 47.8054 10.8416L48.5049 10.7702Z" fill="#292F36"/>
<path d="M57.2837 25.0307C57.4693 25.0307 57.5835 25.1734 57.6263 25.4589C57.6691 25.7444 57.6834 26.0299 57.6834 26.3439C57.6834 26.6579 57.6548 26.8578 57.5977 26.972C57.3122 27.5144 56.6985 28.1853 55.7421 28.9704C54.7857 29.7555 53.8721 30.1552 53.0156 30.1552C52.4875 30.1552 52.0021 29.9982 51.5454 29.6842C51.1028 29.3701 50.8744 28.8134 50.8744 28.0283C50.8744 27.2432 51.0886 26.4581 51.5025 25.7016C49.0759 28.742 47.1916 30.2551 45.807 30.2551C45.2646 30.2551 44.8221 30.0553 44.4795 29.6699C44.1369 29.2845 43.9798 28.8848 43.9798 28.4565C43.9798 28.0426 44.0369 27.6143 44.1511 27.1718C44.2653 26.7293 44.3938 26.3296 44.5223 25.9728C44.6508 25.6159 44.8506 25.1877 45.1075 24.6738C45.3645 24.1599 45.5643 23.7888 45.6785 23.5461C45.7927 23.3034 46.0068 22.9608 46.2923 22.4898C46.5778 22.0187 46.9347 21.3764 47.3915 20.577C47.8482 19.7776 48.2194 19.1781 48.5191 18.7927C48.8189 18.4073 49.1044 18.2074 49.3899 18.2074C49.6754 18.2074 49.918 18.3216 50.1322 18.55C50.3463 18.7784 50.4605 18.9782 50.4605 19.121C50.4605 19.2637 50.1322 19.9204 49.4756 21.0909C47.5485 24.5881 46.5778 26.6151 46.5778 27.2004C46.5778 27.3431 46.6349 27.4145 46.7348 27.4145C47.2059 27.4145 48.3764 26.401 50.2321 24.374C52.0878 22.347 53.1726 21.0481 53.4724 20.4771C53.7722 19.9061 54.0434 19.4208 54.3289 19.0353C54.6001 18.6499 54.8142 18.4073 54.957 18.3216C55.3709 18.0504 55.9134 17.9077 56.5843 17.8791C56.6985 17.8791 56.7698 17.8791 56.8269 17.8934C56.884 17.9077 56.9554 17.9933 57.0268 18.1361C57.0981 18.2788 57.141 18.4073 57.141 18.5072C57.0553 18.7784 56.6699 19.5064 55.9704 20.6912C55.2853 21.876 54.8999 22.5469 54.8285 22.6896C53.6723 25.0735 53.1013 26.6294 53.1013 27.3431C53.1013 27.7571 53.2583 27.9569 53.5723 27.9569C54.1433 27.8856 54.8285 27.4288 55.6279 26.6009C55.9276 26.3011 56.2131 25.987 56.4986 25.673C56.7841 25.359 56.9697 25.1734 57.0268 25.1306C57.0981 25.0592 57.1838 25.0307 57.2837 25.0307Z" fill="#292F36"/>
<path d="M61.5232 21.6476C63.8214 19.0353 65.7913 17.7221 67.4044 17.7221C67.8041 17.7221 68.1324 17.8363 68.3893 18.0789C68.6463 18.3216 68.7747 18.6214 68.7747 19.0068C68.7747 19.3922 68.5035 20.0203 67.9611 20.9196C67.4186 21.8046 66.919 22.5611 66.4622 23.1749C66.2196 23.489 65.9484 23.646 65.6343 23.646C65.3345 23.646 65.0919 23.5318 64.9206 23.3034C64.7493 23.075 64.6637 22.8181 64.6637 22.5183C64.6637 21.8474 65.0205 21.0766 65.7485 20.2344L65.72 20.2058C65.3916 20.2344 64.6066 20.8767 63.3218 22.1043C62.0514 23.3462 60.9665 24.4597 60.0673 25.4303C59.1822 26.4153 58.2116 27.6 57.1552 29.0132C56.8555 29.4272 56.5985 29.6413 56.3844 29.6413C56.1703 29.6413 55.8991 29.5699 55.5565 29.4415C55.2139 29.313 54.9998 29.2131 54.9284 29.156C54.857 29.0989 54.8142 28.9989 54.8142 28.8562C54.8142 28.7277 54.857 28.5564 54.9284 28.3851C54.9998 28.1996 55.1568 27.9426 55.3567 27.6143C55.5565 27.286 55.8848 26.7436 56.313 26.0013C56.7413 25.259 57.3979 24.1313 58.2972 22.6325C59.1965 21.1337 59.7247 20.2201 59.9102 19.9061C60.2814 19.2637 60.5811 18.7927 60.8238 18.5072C61.2663 17.9505 62.0086 17.6792 63.0506 17.6792C63.279 17.6792 63.4075 17.822 63.4075 18.1218C63.4075 18.5785 62.9793 19.4493 62.1371 20.7054L61.5232 21.6476Z" fill="#292F36"/>
<path d="M77.2681 18.6784C77.2681 19.3208 77.0111 19.8917 76.483 20.3771C75.9548 20.8624 75.3696 21.1051 74.6987 21.1051C74.4845 21.1051 74.3418 21.048 74.2704 20.9481C74.199 20.8481 74.1705 20.7054 74.1705 20.5484C74.1705 20.3913 74.1848 20.2201 74.2276 20.063C73.8707 20.1772 73.4853 20.3628 73.0571 20.6055C72.6288 20.8481 72.1007 21.205 71.4726 21.6903C70.8445 22.1757 70.5305 22.5183 70.5305 22.7609C70.5305 22.8323 70.6447 22.8751 70.8731 22.8751C71.1015 22.8751 71.4583 22.7895 71.9294 22.6325C72.4005 22.4754 72.743 22.3898 72.9286 22.3898C73.1142 22.3898 73.2426 22.4041 73.2997 22.4183C73.4282 22.4897 73.5567 22.6325 73.7137 22.8608C73.8565 23.0892 73.9278 23.2748 73.9278 23.4033C73.9278 23.5317 73.7994 23.703 73.5424 23.9172C73.2855 24.1313 73 24.2883 72.6859 24.4025C72.3576 24.5167 72.1435 24.6023 72.0436 24.6594C69.9881 25.8157 68.9603 26.6008 68.9603 27.029C68.9603 27.7856 69.6026 28.171 70.9016 28.171C71.7295 28.171 72.5717 27.914 73.3997 27.3859C74.1134 26.9434 74.7558 26.4866 75.3267 26.0155C75.8977 25.5587 76.2546 25.2732 76.4116 25.159C76.5686 25.0448 76.6828 25.002 76.7542 25.002C77.0111 25.002 77.1396 25.2875 77.1396 25.8585C77.1396 26.4295 77.111 26.8006 77.0397 26.9719C76.9683 27.1575 76.7827 27.3716 76.4544 27.6428C74.3703 29.3415 72.3862 30.198 70.5305 30.198C69.5313 30.198 68.7462 30.0552 68.1466 29.784C67.0475 29.2844 66.5051 28.5278 66.5051 27.5001C66.5051 26.1583 67.4329 25.1305 69.3029 24.4453C68.9317 24.274 68.6891 24.0742 68.5891 23.803C68.475 23.546 68.4321 23.1321 68.4321 22.5611C68.4321 21.9901 68.7033 21.3906 69.2315 20.7482C69.7597 20.1059 70.4163 19.5777 71.1871 19.178C72.9 18.2502 74.4417 17.7934 75.7835 17.7934C76.1118 17.7934 76.4259 17.8648 76.7685 18.0218C77.111 18.1788 77.2681 18.3929 77.2681 18.6784Z" fill="#292F36"/>
<path d="M110.585 8.74335H110.77C110.827 8.74335 110.87 8.74335 110.885 8.75762C110.899 8.77189 110.913 8.7719 110.942 8.78617C110.97 8.78617 110.985 8.80044 111.013 8.82899C111.056 8.87182 111.127 8.91464 111.213 8.95746C111.327 9.04311 111.384 9.14303 111.384 9.25723C111.384 9.37142 111.27 9.61409 111.042 9.98523C110.813 10.3564 110.228 11.2557 109.272 12.7117C107.088 16.0519 105.132 19.1638 103.405 22.0187C100.421 26.9862 98.9083 29.4842 98.8797 29.5128C98.8512 29.5413 98.8369 29.5699 98.8226 29.5984C98.8083 29.6555 98.7798 29.6841 98.7084 29.6841L98.5086 29.6413L98.1089 29.7412L97.8805 29.6984L97.6378 29.7412H97.5522L96.7385 29.8554C96.2532 29.8554 96.0105 29.6841 96.0105 29.3558C96.0105 29.213 96.0533 29.0417 96.139 28.8419C96.4388 28.1282 97.9661 25.5445 100.707 21.0623C98.9083 21.1051 97.1239 21.1336 95.3682 21.1336L92.2278 21.1194C91.7139 21.9473 91.0002 23.1178 90.1009 24.6452C88.1595 27.9711 87.1318 29.6413 87.0033 29.6698C86.8748 29.6984 86.7749 29.7269 86.6893 29.7269C86.6036 29.7269 86.5322 29.6841 86.4751 29.5842C86.4038 29.4985 86.3609 29.4414 86.3324 29.4414C86.3038 29.4414 86.261 29.4557 86.1754 29.4985C86.104 29.5413 85.9898 29.5556 85.8328 29.5556L85.4902 29.5413L85.3617 29.4557C85.3475 29.4557 85.3332 29.47 85.3189 29.4985C85.3046 29.5271 85.2618 29.5413 85.2047 29.5413C84.7907 29.5413 84.5766 29.37 84.5766 29.0132C84.5766 28.7848 84.6623 28.4708 84.8193 28.0853C84.9906 27.6999 85.2047 27.286 85.4759 26.8435C85.7471 26.4009 86.4323 25.3304 87.56 23.6602C88.6734 21.9901 89.2301 21.1479 89.2301 21.1336C89.0445 21.1194 88.8304 21.1194 88.5878 21.1051C88.0882 21.1051 87.7456 21.0908 87.5314 21.048C86.9747 20.9481 86.5893 20.4913 86.3895 19.6776C86.2753 19.278 86.2325 19.021 86.2467 18.8925C86.2467 18.6356 86.3609 18.4929 86.5893 18.4929L86.9747 18.5928C87.1746 18.607 87.6314 18.6213 88.3737 18.6641C89.1159 18.707 89.6441 18.7212 89.9724 18.7212L90.8003 18.6927C92.0708 16.7085 93.5839 14.4532 95.3539 11.9408C94.0692 12.9972 92.6417 13.5253 91.0715 13.5253C90.3293 13.5253 89.6869 13.354 89.1587 12.9972C88.6163 12.6403 88.3594 12.1835 88.3594 11.6411C88.3594 11.0986 88.5592 10.6704 88.9732 10.3421C89.3872 10.0281 89.7725 9.87103 90.1437 9.87103C90.5148 9.87103 90.7004 9.92813 90.7004 10.0423C90.7004 10.0852 90.6433 10.128 90.5434 10.1708C90.4435 10.2279 90.3864 10.2707 90.3864 10.3135C90.3864 10.4706 90.5576 10.6133 90.9002 10.7275C91.2428 10.8417 91.6282 10.9131 92.0565 10.9131C92.4847 10.9131 92.9986 10.7846 93.6267 10.5419C94.2548 10.2993 94.8971 9.97095 95.568 9.58554C96.5101 9.04311 97.2524 8.58632 97.7948 8.22946C98.1089 8.07244 98.3944 8.00107 98.6799 8.00107C98.9654 8.00107 99.1509 8.02962 99.2794 8.10099C99.4079 8.15809 99.4935 8.22946 99.5506 8.28656C99.6077 8.34366 99.6791 8.42931 99.7362 8.52923C99.8075 8.62915 99.8646 8.7148 99.936 8.75762C99.9931 8.81472 100.036 8.87181 100.036 8.94319C100.036 9.01456 99.9931 9.11448 99.9218 9.2715C99.8504 9.41425 99.4792 10.0138 98.8083 11.0558C98.1374 12.0979 97.2667 13.4254 96.2104 15.0384C95.1541 16.6514 94.3832 17.8362 93.8979 18.6071C96.5101 18.6071 99.3222 18.5642 102.348 18.4643C106.031 12.6546 107.973 9.61409 108.172 9.3286C108.372 9.04311 108.558 8.85754 108.729 8.77189C108.9 8.68625 109.1 8.64342 109.343 8.64342L110.585 8.74335Z" fill="#292F36"/>
<path d="M115.353 18.4786C115.652 18.4786 115.952 18.6071 116.252 18.8783C116.566 19.1495 116.709 19.5492 116.709 20.0916C116.709 20.634 116.523 21.3335 116.138 22.2042C115.752 23.0607 115.238 23.9457 114.567 24.845C113.911 25.7301 113.169 26.5722 112.383 27.3573C111.584 28.1424 110.728 28.7848 109.814 29.2844C108.886 29.784 108.058 30.041 107.302 30.041C106.545 30.041 105.946 29.7983 105.489 29.3272C105.032 28.8562 104.804 28.1995 104.804 27.3573C104.804 26.5152 105.018 25.573 105.432 24.5595C105.846 23.5318 106.374 22.6325 107.03 21.8474C107.687 21.0623 108.387 20.3628 109.157 19.7347C110.742 18.45 112.141 17.822 113.34 17.822C113.882 17.822 114.282 17.9504 114.553 18.2216C114.653 18.3073 114.696 18.3929 114.696 18.45V18.5357C114.853 18.4786 115.067 18.4786 115.353 18.4786ZM113.882 20.4199H113.782C113.44 20.4199 113.268 20.1773 113.268 19.6777C112.555 19.906 111.812 20.32 111.027 20.9053C110.242 21.4905 109.543 22.19 108.929 22.9893C107.673 24.5881 107.045 25.9442 107.03 27.0433C107.03 27.5857 107.23 27.857 107.63 27.857C108.03 27.857 108.629 27.5857 109.414 27.0719C110.199 26.558 110.985 25.8014 111.77 24.8165C112.54 23.8458 113.126 22.9893 113.511 22.2756C113.897 21.5619 114.096 21.0765 114.096 20.8053C114.082 20.5484 114.011 20.4199 113.882 20.4199Z" fill="#292F36"/>
<path d="M116.395 29.7126L115.681 29.6841H115.424C115.324 29.6555 115.224 29.5984 115.11 29.5128C114.996 29.4271 114.91 29.3557 114.853 29.3272C114.796 29.2986 114.767 29.213 114.767 29.1131C114.767 29.0131 114.81 28.8276 114.881 28.5849C116.78 24.4025 118.621 21.048 120.406 18.5499C120.606 18.2787 120.92 18.0646 121.348 17.9218C121.776 17.7791 122.204 17.7077 122.618 17.7077C122.861 17.7077 122.989 17.8933 122.989 18.2787C122.989 18.3929 122.947 18.5356 122.875 18.7069C122.804 18.8925 122.604 19.178 122.29 19.592C121.976 20.0059 121.605 20.477 121.177 20.9909C120.748 21.5047 120.506 21.8188 120.449 21.9044C121.79 20.5198 122.989 19.492 124.074 18.8069C125.159 18.136 125.93 17.7934 126.415 17.7934C126.901 17.7934 127.272 17.9361 127.529 18.2073C127.786 18.4785 127.914 18.7783 127.914 19.0923C127.914 19.4064 127.886 19.6776 127.843 19.8774C127.8 20.0916 127.714 20.3057 127.6 20.5341C127.486 20.7625 127.386 20.9623 127.3 21.1193C127.215 21.2764 127.072 21.4905 126.886 21.7474C126.687 22.0044 126.558 22.1899 126.487 22.2898C126.415 22.3898 126.258 22.5753 126.03 22.8465C125.801 23.1178 125.673 23.2748 125.659 23.3033C125.93 23.0321 126.315 22.6324 126.801 22.09C127.286 21.5476 127.7 21.1051 128.043 20.7482C128.385 20.3913 128.799 19.9774 129.313 19.5206C129.827 19.0638 130.298 18.6927 130.726 18.4214C131.783 17.7648 132.853 17.4222 133.938 17.4222C134.309 17.4222 134.623 17.5364 134.88 17.7791C135.137 18.0218 135.266 18.293 135.266 18.6213C135.266 18.9496 134.866 19.7347 134.081 20.9623C133.296 22.1899 132.496 23.4318 131.711 24.6737C130.926 25.9156 130.526 26.7007 130.526 27.029C130.526 27.4715 130.612 27.7427 130.769 27.8284C130.94 27.914 131.14 27.9426 131.369 27.9283C131.597 27.914 131.94 27.757 132.354 27.4715C132.782 27.186 133.153 26.9005 133.481 26.5865C134.024 26.1011 134.509 25.6301 134.98 25.1733C135.08 25.0877 135.18 25.0448 135.308 25.0448C135.494 25.0448 135.608 25.1876 135.651 25.4731C135.694 25.7586 135.708 26.044 135.708 26.3581C135.708 26.6721 135.679 26.872 135.622 26.9862C135.337 27.5286 134.709 28.1995 133.752 28.9989C132.782 29.784 131.854 30.1837 130.969 30.1837C130.855 30.1837 130.783 30.1837 130.74 30.1694C129.741 30.0695 129.042 29.7982 128.656 29.3415C128.271 28.8847 128.085 28.3422 128.085 27.7284C128.085 27.1146 128.3 26.3438 128.728 25.4588C129.156 24.5738 129.613 23.7601 130.127 23.0464C130.641 22.3327 131.097 21.676 131.526 21.0908C131.954 20.5055 132.168 20.1915 132.168 20.1487C132.168 20.1058 132.125 20.0773 132.054 20.0773C131.754 20.0773 131.083 20.5626 130.027 21.5476C128.242 23.2177 126.701 24.8307 125.402 26.3724C125.059 26.7863 124.246 27.8141 122.975 29.4842C122.832 29.6841 122.59 29.784 122.276 29.784C121.962 29.784 121.633 29.7269 121.291 29.5984C120.948 29.4699 120.777 29.3129 120.777 29.1273C120.777 29.0274 121.548 27.6571 123.104 25.0163C124.66 22.3755 125.43 20.9338 125.43 20.7054C125.43 20.4627 125.288 20.3485 125.002 20.3485C124.717 20.3485 124.117 20.7767 123.218 21.6332C120.748 23.9885 118.836 26.3438 117.479 28.6706C117.394 28.8133 117.222 29.0274 116.966 29.3129C116.709 29.5984 116.48 29.7126 116.395 29.7126Z" fill="#292F36"/>
<path d="M144.701 18.6784C144.701 19.3208 144.444 19.8917 143.916 20.3771C143.388 20.8624 142.802 21.1051 142.132 21.1051C141.917 21.1051 141.775 21.048 141.703 20.9481C141.632 20.8481 141.603 20.7054 141.603 20.5484C141.603 20.3913 141.618 20.2201 141.661 20.063C141.304 20.1772 140.918 20.3628 140.49 20.6055C140.062 20.8481 139.534 21.205 138.906 21.6903C138.277 22.1757 137.963 22.5183 137.963 22.7609C137.963 22.8323 138.078 22.8751 138.306 22.8751C138.534 22.8751 138.891 22.7895 139.362 22.6325C139.833 22.4754 140.176 22.3898 140.362 22.3898C140.547 22.3898 140.676 22.4041 140.733 22.4183C140.861 22.4897 140.99 22.6325 141.147 22.8608C141.289 23.0892 141.361 23.2748 141.361 23.4033C141.361 23.5317 141.232 23.703 140.975 23.9172C140.718 24.1313 140.433 24.2883 140.119 24.4025C139.791 24.5167 139.576 24.6023 139.477 24.6594C137.421 25.8157 136.393 26.6008 136.393 27.029C136.393 27.7856 137.036 28.171 138.335 28.171C139.162 28.171 140.005 27.914 140.833 27.3859C141.546 26.9434 142.189 26.4866 142.76 26.0155C143.331 25.5587 143.688 25.2732 143.845 25.159C144.002 25.0448 144.116 25.002 144.187 25.002C144.444 25.002 144.573 25.2875 144.573 25.8585C144.573 26.4295 144.544 26.8006 144.473 26.9719C144.401 27.1575 144.216 27.3716 143.887 27.6428C141.803 29.3415 139.819 30.198 137.963 30.198C136.964 30.198 136.179 30.0552 135.58 29.784C134.48 29.2844 133.938 28.5278 133.938 27.5001C133.938 26.1583 134.866 25.1305 136.736 24.4453C136.365 24.274 136.122 24.0742 136.022 23.803C135.908 23.546 135.865 23.1321 135.865 22.5611C135.865 21.9901 136.136 21.3906 136.664 20.7482C137.193 20.1059 137.849 19.5777 138.62 19.178C140.333 18.2502 141.875 17.7934 143.216 17.7934C143.545 17.7934 143.859 17.8648 144.201 18.0218C144.544 18.1788 144.701 18.3929 144.701 18.6784Z" fill="#292F36"/>
<path d="M0 33.6667C3.7542 35.2369 7.57977 36.4502 11.4767 37.378C15.3451 38.3487 19.2849 39.0339 23.2247 39.4621C25.1946 39.7333 27.1787 39.7619 29.1343 39.9474C31.1185 39.9617 33.0884 40.1187 35.0583 40.0045L38.0131 39.9332C38.998 39.9189 39.983 39.7904 40.9679 39.7333C41.9529 39.6477 42.9378 39.6049 43.9085 39.4764L46.8347 39.0624C50.7602 38.6342 54.5715 37.7206 58.3686 36.6215C62.2084 35.5652 65.8342 34.1663 69.674 32.7103C73.5995 31.2685 77.8533 30.3264 82.1642 30.7832C84.2911 31.0544 86.4323 31.7396 88.1738 32.9958C89.9296 34.2376 91.1857 36.0077 91.9851 37.8634C90.786 36.2075 89.2872 34.8514 87.56 34.0092C85.8328 33.167 83.9343 32.8245 82.05 32.8816C78.2387 32.9387 74.4845 34.2091 70.9587 35.8078C67.3758 37.5779 63.4931 39.1766 59.5819 40.5042C55.6421 41.7746 51.5739 42.7881 47.4485 43.302C39.2407 44.3868 30.833 44.4011 22.7251 42.7595C18.6568 42.0173 14.6885 40.861 10.8486 39.3907C7.03733 37.8634 3.31169 36.0791 0 33.6667Z" fill="#292F36"/>
<path d="M136.507 9.89958C133.324 8.5435 130.084 7.48718 126.801 6.65926C123.532 5.78851 120.22 5.17471 116.894 4.74648C115.238 4.48953 113.554 4.43244 111.898 4.23259C110.228 4.18977 108.572 4.01847 106.902 4.08985C106.074 4.10412 105.232 4.10412 104.404 4.08985C103.576 4.08985 102.734 4.17549 101.906 4.20404C101.078 4.26114 100.236 4.27542 99.4079 4.36106L96.9241 4.66083C93.5981 4.93204 90.3721 5.61722 87.146 6.45942C83.8772 7.24452 80.7796 8.35793 77.4822 9.47135C74.0991 10.599 70.4305 11.2842 66.7477 10.7703C64.9349 10.4706 63.1077 9.82821 61.666 8.68624C60.1957 7.55856 59.1965 6.01691 58.5827 4.40388C59.5962 5.81706 60.8523 6.9733 62.2941 7.68703C63.7358 8.40076 65.3203 8.70052 66.9047 8.68624C70.1022 8.68624 73.2712 7.65848 76.2688 6.37377C79.3236 4.91777 82.6781 3.63306 86.0183 2.57675C89.3871 1.56325 92.8987 0.792428 96.4102 0.42129C103.419 -0.320985 110.585 -0.149691 117.451 1.47761C120.891 2.20561 124.246 3.31902 127.457 4.68938C130.683 6.08828 133.795 7.71558 136.507 9.89958Z" fill="#292F36"/>
</svg>
