<svg width="103" height="103" viewBox="0 0 103 103" fill="none" xmlns="http://www.w3.org/2000/svg">
<path d="M51.1599 101.606C79.0206 101.606 101.606 79.0206 101.606 51.1599C101.606 23.2993 79.0206 0.713727 51.1599 0.713727C23.2993 0.713727 0.713721 23.2993 0.713721 51.1599C0.713721 79.0206 23.2993 101.606 51.1599 101.606Z" fill="white"/>
<path d="M51.1599 102.32C22.9535 102.32 0 79.3664 0 51.1599C0 22.9535 22.9535 0 51.1599 0C79.3664 0 102.32 22.9535 102.32 51.1599C102.32 79.3664 79.3664 102.32 51.1599 102.32ZM51.1599 1.42745C23.7386 1.42745 1.42745 23.7386 1.42745 51.1599C1.42745 78.5813 23.7386 100.892 51.1599 100.892C78.5813 100.892 100.892 78.5813 100.892 51.1599C100.892 23.7386 78.5813 1.42745 51.1599 1.42745Z" fill="#292F36"/>
<path d="M58.3543 5.83832C58.6969 5.86686 58.9967 5.88114 59.2394 5.88114L59.2108 6.10953C58.8111 6.16663 58.4685 6.46639 58.1973 7.03738L54.8 13.8321L54.7001 13.8178L54.6144 13.8035L52.459 6.22373C52.3162 5.72412 52.0736 5.4529 51.731 5.41008L51.7595 5.18169C52.0735 5.23878 52.4875 5.28161 53.0014 5.33871C53.6723 5.3958 54.1719 5.43863 54.5002 5.43863L54.4717 5.66702C54.1719 5.65275 53.9578 5.66702 53.8293 5.70984C53.7008 5.75267 53.6295 5.86686 53.6152 6.00961C53.6009 6.13808 53.6295 6.32365 53.7008 6.56632L55.2853 12.3618L57.6406 7.62263C57.8405 7.23722 57.9404 6.92318 57.9689 6.69479C57.9975 6.45212 57.9261 6.26655 57.7691 6.13808C57.6121 6.00961 57.3551 5.93824 57.0125 5.89541L57.0411 5.66702C57.455 5.73839 57.8976 5.79549 58.3543 5.83832Z" fill="#292F36"/>
<path d="M67.9468 8.85027C67.8041 8.85027 67.6899 8.90737 67.6042 9.02156C67.5186 9.13576 67.4187 9.32133 67.3187 9.59255L65.2775 15.0169C65.1776 15.2881 65.1205 15.5022 65.1205 15.6449C65.1205 15.7877 65.1633 15.9019 65.2632 15.9875C65.3631 16.0732 65.5487 16.1731 65.8056 16.2873L65.72 16.5014C65.3917 16.3587 64.9349 16.1731 64.3496 15.9447C63.7216 15.702 63.2505 15.545 62.9365 15.4451L63.0221 15.231C63.2933 15.3166 63.4932 15.3595 63.6216 15.3595C63.7501 15.3595 63.8786 15.3024 63.9642 15.1882C64.0499 15.074 64.1498 14.8884 64.2497 14.6172L66.291 9.19286C66.3909 8.92164 66.448 8.70752 66.448 8.56478C66.448 8.42203 66.4052 8.30784 66.3052 8.22219C66.2053 8.13654 66.0198 8.03662 65.7628 7.92242L65.8485 7.70831C66.1482 7.83678 66.605 8.02235 67.2331 8.26501C67.8183 8.49341 68.2894 8.65043 68.632 8.75035L68.5463 8.96447C68.2894 8.87882 68.0896 8.83599 67.9468 8.85027Z" fill="#292F36"/>
<path d="M80.6512 16.4015C80.5084 16.3729 80.3657 16.4157 80.2372 16.5014C80.1087 16.587 79.9517 16.7583 79.7804 17.001L75.6408 22.6109L75.4267 22.4539L75.9834 13.4323L72.3148 18.3999C72.1435 18.6426 72.0293 18.8424 71.9722 18.9994C71.9151 19.1564 71.9437 19.2992 72.0151 19.4419C72.0864 19.5847 72.2577 19.7417 72.5004 19.9415L72.3576 20.1271C72.1435 19.9415 71.8295 19.6989 71.4155 19.3848C71.0444 19.1136 70.7446 18.8995 70.5162 18.771L70.659 18.5855C70.8874 18.7425 71.0729 18.8281 71.2157 18.8424C71.3584 18.8709 71.5012 18.8281 71.6296 18.7425C71.7581 18.6426 71.9151 18.4855 72.0864 18.2429L75.4552 13.675C75.6265 13.4323 75.7407 13.2468 75.7835 13.1183C75.8264 12.9898 75.8121 12.8614 75.7407 12.7472C75.6693 12.633 75.5266 12.4902 75.2982 12.3047L75.4409 12.1191C75.6265 12.2904 75.912 12.5188 76.2974 12.79C76.5829 13.0041 76.8256 13.1754 77.054 13.3039L76.5972 20.8694L79.5663 16.844C79.7376 16.6013 79.8661 16.4015 79.9089 16.2444C79.9517 16.0874 79.9374 15.9447 79.8661 15.8019C79.7947 15.6592 79.6234 15.4879 79.3807 15.3023L79.5235 15.1167C79.7376 15.3023 80.0516 15.545 80.4656 15.859C80.8367 16.1302 81.1365 16.3444 81.3649 16.4728L81.2221 16.6584C80.9795 16.5156 80.7939 16.4157 80.6512 16.4015Z" fill="#292F36"/>
<path d="M85.4331 22.8392C85.8043 22.568 86.1897 22.2682 86.6036 21.8971C86.9605 22.4395 87.5886 23.3388 88.4879 24.6093C89.3872 25.8654 90.0295 26.7505 90.4149 27.2643C89.9296 27.5498 89.5156 27.8068 89.1445 28.0637C88.8305 28.2921 88.5735 28.4919 88.388 28.649L88.2309 28.4348C88.6877 28.0352 89.0018 27.7068 89.1873 27.4642C89.3729 27.2215 89.4443 26.9646 89.43 26.6934C89.4157 26.4221 89.2444 26.0938 88.9732 25.6941L88.6021 25.1803L83.192 29.0344C82.9351 29.2199 82.7495 29.3912 82.6639 29.5197C82.5782 29.6482 82.5497 29.8052 82.6068 29.9765C82.6496 30.1335 82.7781 30.3619 82.9636 30.6474L82.7781 30.7901C82.5639 30.4476 82.2356 29.9622 81.8074 29.377C81.3506 28.7346 81.008 28.2778 80.7796 27.9923L80.9652 27.8496C81.1793 28.1208 81.3506 28.3064 81.4934 28.4063C81.6361 28.5062 81.7788 28.5348 81.9359 28.4919C82.0929 28.4491 82.307 28.3349 82.5639 28.1494L87.974 24.2952L87.6029 23.7813C87.3174 23.3817 87.0604 23.139 86.8178 23.0248C86.5751 22.9106 86.3039 22.8963 86.0184 22.9963C85.7329 23.0962 85.3189 23.2817 84.7908 23.5815L84.6338 23.3674C84.8479 23.2532 85.1048 23.0819 85.4331 22.8392Z" fill="#292F36"/>
<path d="M88.1738 42.6524L87.9454 42.7237C87.8598 42.4097 87.7456 42.01 87.5743 41.5247C87.3602 40.8966 87.1889 40.4255 87.0604 40.1115L87.2888 40.0401C87.3887 40.3113 87.5029 40.5112 87.5886 40.6111C87.6885 40.711 87.817 40.7396 87.9597 40.6825C88.0882 40.6396 88.2452 40.5397 88.4308 40.3827L90.0152 39.0837L89.1159 36.4144L87.7884 36.3573C87.3602 36.3287 87.0319 36.3573 86.8035 36.4429C86.5751 36.5286 86.4323 36.6571 86.3752 36.8426C86.3324 37.0282 86.361 37.2994 86.4609 37.6277L86.2325 37.6991C86.1183 37.2709 85.9755 36.8426 85.8328 36.4144C85.7186 36.0861 85.6187 35.8149 85.5188 35.6007L85.7471 35.5294C85.947 35.872 86.3752 36.0575 87.0033 36.0718L94.5974 36.4144L94.6545 36.5857L88.6021 41.6246C88.2309 41.9815 88.0882 42.3098 88.1738 42.6524ZM93.1271 36.5857L89.3872 36.4287L90.2294 38.941L93.1271 36.5857Z" fill="#292F36"/>
<path d="M89.2159 53.5724C89.3586 53.5153 89.43 53.444 89.43 53.344C89.43 53.2869 89.4157 53.2441 89.3872 53.2013C89.3586 53.1585 89.3015 53.0728 89.2159 52.9586C89.0018 52.6874 88.8447 52.4019 88.7305 52.1164C88.6163 51.8309 88.5592 51.5026 88.5592 51.1458C88.545 50.3464 88.702 49.6612 89.016 49.0759C89.3443 48.4907 89.8011 48.0482 90.4292 47.7341C91.043 47.4201 91.7853 47.2631 92.656 47.2488C93.5553 47.2345 94.3404 47.3773 95.0113 47.6913C95.6822 48.0054 96.2104 48.4336 96.5815 49.0046C96.9527 49.5756 97.1525 50.2179 97.1525 50.9316C97.1525 51.2457 97.124 51.5312 97.0669 51.7738C97.0098 52.0165 96.9241 52.2306 96.8242 52.4162C96.7243 52.6018 96.5958 52.8159 96.4245 53.0443C96.3531 53.1442 96.3103 53.2298 96.3103 53.2869C96.3103 53.4297 96.553 53.5296 97.024 53.5724V53.8436C96.5244 53.8151 95.6251 53.8151 94.3404 53.8436V53.5724C94.7544 53.501 95.097 53.4154 95.3682 53.3298C95.6394 53.2441 95.8678 53.1156 96.0677 52.9586C96.3389 52.7302 96.5673 52.4305 96.7243 52.0593C96.8813 51.6882 96.9527 51.317 96.9527 50.9174C96.9384 50.4035 96.7671 49.961 96.4245 49.5756C96.0819 49.1901 95.5966 48.9047 94.9828 48.6905C94.3547 48.4907 93.641 48.3908 92.813 48.405C91.8709 48.4193 91.1144 48.5335 90.5149 48.7476C89.9153 48.9618 89.4871 49.2758 89.2016 49.6898C88.9161 50.1037 88.7876 50.6319 88.8019 51.2742C88.8162 51.7453 88.9447 52.145 89.1873 52.4876C89.2872 52.6303 89.3729 52.716 89.4728 52.7588C89.5585 52.8016 89.6869 52.8159 89.844 52.8159L90.9716 52.8016C91.3 52.8016 91.5284 52.7588 91.6854 52.7017C91.8281 52.6446 91.9423 52.5304 91.9851 52.3591C92.0422 52.2021 92.0708 51.9451 92.0708 51.6025H92.2992C92.2849 51.988 92.2706 52.5304 92.2849 53.2584C92.2992 53.8008 92.3135 54.2148 92.342 54.4717H92.1136C92.0993 54.2861 92.0565 54.1577 92.0137 54.0863C91.9709 54.0149 91.8709 53.9578 91.7425 53.9293C91.614 53.9007 91.3999 53.8865 91.1001 53.9007L88.7876 53.9436V53.7152C88.9161 53.6581 89.0731 53.6295 89.2159 53.5724Z" fill="#292F36"/>
<path d="M87.5172 65.72C87.1032 65.5915 86.6179 65.463 86.0612 65.3488C86.2468 64.8492 86.518 64.007 86.9034 62.808C87.3602 61.3805 87.6885 60.2956 87.8883 59.5676L88.1167 59.639C88.0454 59.9102 88.0168 60.1101 88.0168 60.2528C88.0311 60.3956 88.0882 60.4955 88.2024 60.5811C88.3166 60.6668 88.5164 60.7524 88.7876 60.8381L94.3119 62.5796C94.5974 62.6652 94.7972 62.708 94.94 62.708C95.0827 62.708 95.1969 62.6509 95.2825 62.5367C95.3682 62.4225 95.4538 62.237 95.5538 61.98L95.7822 62.0514C95.5252 62.7794 95.1826 63.85 94.7258 65.2774C94.3833 66.3623 94.1406 67.1474 94.0264 67.6185C93.5553 67.4186 93.1271 67.2473 92.7274 67.1331C92.4419 67.0475 92.1992 66.9761 92.028 66.9476L92.1136 66.6906C92.6132 66.7906 92.9986 66.8334 93.2556 66.8334C93.5125 66.8334 93.7266 66.7477 93.8979 66.5764C94.0692 66.4194 94.212 66.1339 94.3404 65.7485L94.6259 64.8207C94.7116 64.5494 94.7544 64.3496 94.7401 64.2211C94.7258 64.0927 94.683 63.9785 94.5688 63.8928C94.4546 63.8072 94.2691 63.7215 93.9836 63.6359L91.357 62.808L91.1287 63.5502C91.0145 63.9214 91.043 64.2069 91.2286 64.4067C91.4141 64.6065 91.614 64.7493 91.8424 64.8492C92.0708 64.9491 92.2135 65.0205 92.2706 65.049L92.185 65.306C91.8281 65.1632 91.4855 65.0348 91.1429 64.9349L90.6148 64.7778C90.2436 64.6636 89.7012 64.5066 89.016 64.3496L89.1017 64.0927C89.1588 64.1069 89.3443 64.1355 89.6584 64.2069C89.9724 64.264 90.2436 64.2354 90.4578 64.1212C90.6719 64.007 90.8146 63.7929 90.9145 63.4931L91.1429 62.7509L88.4593 61.9087C88.1738 61.823 87.974 61.7802 87.8312 61.7802C87.6885 61.7802 87.5743 61.8373 87.5029 61.9515C87.4173 62.0657 87.3316 62.2512 87.246 62.5225L86.989 63.3361C86.8463 63.8072 86.7892 64.1783 86.8463 64.4495C86.8891 64.735 87.0319 64.9634 87.2745 65.1633C87.5172 65.3488 87.8883 65.5629 88.3879 65.7913L88.3023 66.0483C88.131 65.9198 87.8598 65.8342 87.5172 65.72Z" fill="#292F36"/>
<path d="M83.449 83.2349C83.5061 83.1064 83.4918 82.9779 83.4347 82.8495C83.3776 82.721 83.2348 82.564 83.0207 82.3498L78.824 78.3387C78.6099 78.1389 78.4386 78.0104 78.3101 77.9533C78.1816 77.8962 78.0532 77.8962 77.9247 77.9533C77.7962 78.0104 77.6392 78.1389 77.4394 78.3387L77.2681 78.1817C77.5393 77.939 77.8819 77.5822 78.3244 77.1396C78.7812 76.6543 79.1238 76.2832 79.3379 76.0405L79.5092 76.1975C79.3236 76.4116 79.2094 76.5829 79.1523 76.6971C79.0952 76.8256 79.1095 76.9541 79.1666 77.0825C79.2237 77.211 79.3664 77.368 79.5806 77.5822L83.7773 81.5933C83.9914 81.7931 84.1627 81.9216 84.2911 81.9787C84.4196 82.0358 84.5481 82.0358 84.6766 81.9787C84.805 81.9216 84.9621 81.7931 85.1619 81.5933L85.3332 81.7503C85.0905 81.9644 84.7337 82.3213 84.2769 82.8066C83.8344 83.2634 83.5061 83.6346 83.2777 83.9058L83.1064 83.7487C83.2777 83.5346 83.3919 83.3633 83.449 83.2349Z" fill="#292F36"/>
<path d="M71.5583 91.9423C71.6439 91.8138 71.6582 91.6853 71.6297 91.5283C71.6011 91.3713 71.5012 91.1715 71.3442 90.9002L67.8041 84.8907L68.0325 84.7479L76.1119 88.7876L72.9857 83.4775C72.8287 83.2205 72.7002 83.035 72.5718 82.935C72.4433 82.8351 72.3006 82.7923 72.1435 82.8066C71.9865 82.8208 71.7724 82.9065 71.5012 83.0492L71.3727 82.8494C71.6297 82.7352 71.9722 82.5354 72.4147 82.2784C72.8144 82.0358 73.1142 81.8502 73.3283 81.6932L73.4425 81.893C73.2141 82.0358 73.0571 82.1785 72.9857 82.307C72.9001 82.4354 72.8858 82.5639 72.9144 82.7209C72.9429 82.878 73.0428 83.0778 73.1999 83.349L76.0833 88.2452C76.2261 88.5021 76.3545 88.6734 76.4687 88.7591C76.5829 88.8447 76.6971 88.8875 76.8399 88.859C76.9683 88.8304 77.1682 88.7591 77.4108 88.6306L77.525 88.8304C77.2966 88.9446 76.9826 89.1159 76.5686 89.3586C76.2689 89.5299 76.0119 89.7012 75.7978 89.8439L69.0174 86.4609L71.5583 90.7718C71.7153 91.0287 71.8438 91.2143 71.9722 91.3142C72.0864 91.4141 72.2292 91.4569 72.4005 91.4427C72.5718 91.4284 72.7859 91.3428 73.0571 91.2L73.1713 91.3998C72.9144 91.514 72.5718 91.7139 72.1293 91.9708C71.7296 92.2135 71.4298 92.3991 71.2157 92.5561L71.1015 92.3562C71.3156 92.1992 71.4726 92.0565 71.5583 91.9423Z" fill="#292F36"/>
<path d="M63.7073 93.8123C63.8072 94.2549 63.9357 94.7402 64.107 95.2541C63.4646 95.3683 62.394 95.5967 60.8809 95.9107C59.3678 96.239 58.3115 96.4817 57.6834 96.6387C57.612 96.082 57.5407 95.5967 57.4408 95.1542C57.3551 94.7687 57.2837 94.4547 57.1981 94.2263L57.455 94.1692C57.6406 94.7545 57.8119 95.1684 57.9689 95.4396C58.1259 95.7109 58.3258 95.8822 58.5827 95.9678C58.8397 96.0535 59.2108 96.0392 59.6819 95.9393L60.2957 95.8108L58.8968 89.3159C58.8254 89.0018 58.754 88.7734 58.6541 88.645C58.5542 88.5165 58.44 88.4308 58.2687 88.4166C58.0974 88.388 57.8404 88.4166 57.4979 88.4737L57.455 88.2453C57.8547 88.1882 58.4257 88.074 59.1394 87.917C59.896 87.7457 60.467 87.6172 60.8238 87.5173L60.8666 87.7457C60.5241 87.8313 60.2957 87.917 60.1529 88.0026C60.0102 88.0883 59.9245 88.2167 59.896 88.3737C59.8674 88.5308 59.8817 88.7734 59.9531 89.0875L61.352 95.5824L61.9658 95.4539C62.4368 95.354 62.7794 95.2113 62.9793 95.0257C63.1791 94.8401 63.2933 94.5974 63.3219 94.2977C63.3504 93.9979 63.3361 93.5411 63.2648 92.9416L63.5217 92.8845C63.5645 93.1129 63.6216 93.4269 63.7073 93.8123Z" fill="#292F36"/>
<path d="M44.765 89.8011C44.8078 89.3586 44.8221 88.859 44.8221 88.3023C45.3502 88.3736 46.2352 88.4593 47.4914 88.5735C48.976 88.702 50.1036 88.8019 50.8745 88.8447L50.8602 89.0731C50.5747 89.0588 50.3749 89.0731 50.2464 89.1159C50.1179 89.1587 50.018 89.2301 49.9609 89.3586C49.9038 89.4871 49.861 89.7012 49.8324 89.9867L49.3185 95.7679C49.29 96.0533 49.3043 96.2675 49.3328 96.4102C49.3614 96.553 49.447 96.6529 49.5755 96.71C49.704 96.7671 49.9038 96.8242 50.175 96.8527L50.1607 97.0811C49.4042 96.9955 48.2765 96.8813 46.792 96.7528C45.65 96.6529 44.8363 96.5958 44.351 96.5672C44.4509 96.0676 44.5223 95.6108 44.5508 95.1969C44.5794 94.8971 44.5937 94.6544 44.5794 94.4689L44.8506 94.4974C44.8649 95.0113 44.8934 95.3824 44.9648 95.6394C45.0219 95.8963 45.1504 96.0819 45.3502 96.2104C45.5358 96.3388 45.8498 96.4245 46.2495 96.453L47.2202 96.5387C47.5057 96.5672 47.7055 96.553 47.834 96.5244C47.9625 96.4959 48.0624 96.4102 48.1195 96.2817C48.1766 96.1533 48.2194 95.9392 48.248 95.6537L48.4906 92.9129L47.7198 92.8416C47.3344 92.813 47.0632 92.8987 46.9062 93.1271C46.7634 93.3555 46.6492 93.5839 46.6064 93.8265C46.5493 94.0692 46.5207 94.2262 46.5065 94.2976L46.2352 94.269C46.2923 93.8836 46.3352 93.5267 46.378 93.1699L46.4208 92.6132C46.4494 92.2135 46.4779 91.6711 46.5065 90.9573L46.7777 90.9859C46.7777 91.043 46.792 91.2286 46.792 91.5569C46.8062 91.8852 46.8776 92.1421 47.0489 92.3134C47.2059 92.499 47.4486 92.5989 47.7626 92.6275L48.5334 92.6988L48.7761 89.901C48.8047 89.6155 48.7904 89.4014 48.7618 89.2587C48.7333 89.1302 48.6476 89.0303 48.5192 88.9732C48.3907 88.9161 48.1909 88.8733 47.9196 88.8447L47.0632 88.7733C46.5778 88.7305 46.2067 88.7591 45.9355 88.8733C45.6785 88.9732 45.4787 89.173 45.3359 89.4442C45.1932 89.7155 45.079 90.1294 44.9648 90.6719L44.6936 90.6433C44.6936 90.4292 44.7221 90.1437 44.765 89.8011Z" fill="#292F36"/>
<path d="M33.5309 84.5053C33.745 84.4625 33.9877 84.5053 34.2446 84.6195C34.5444 84.748 34.7442 84.9335 34.8584 85.1762C34.9726 85.4331 34.9869 85.79 34.9155 86.2611L34.7014 87.4316C34.63 87.8455 34.5872 88.1596 34.5729 88.4022C34.5587 88.6306 34.6158 88.8447 34.7157 89.0303C34.8156 89.2159 35.0012 89.3586 35.2724 89.4728L36.3002 89.9011L37.3422 87.4173C37.4564 87.1461 37.5135 86.9462 37.5278 86.8035C37.5421 86.6607 37.485 86.5465 37.385 86.4466C37.2851 86.3467 37.1138 86.2468 36.8569 86.1326L36.9425 85.9185C37.2708 86.0755 37.7133 86.2753 38.2986 86.518C38.9124 86.7749 39.3835 86.9605 39.6975 87.0604L39.6119 87.2745C39.3406 87.1746 39.1408 87.1318 39.0123 87.1175C38.8696 87.1175 38.7554 87.1603 38.6697 87.2745C38.5698 87.3745 38.4699 87.56 38.3557 87.8313L36.1146 93.1842C36.0004 93.4554 35.9433 93.6553 35.929 93.798C35.9148 93.9408 35.9719 94.0549 36.0718 94.1549C36.1717 94.2548 36.343 94.3547 36.5999 94.4832L36.5143 94.6973C36.2145 94.5546 35.7863 94.3547 35.2153 94.1121C34.9298 93.9979 34.6301 93.8694 34.2875 93.7266C33.9449 93.5839 33.7165 93.4982 33.588 93.4411C33.0313 93.1985 32.5888 92.9273 32.2605 92.599C31.9322 92.2706 31.7466 91.928 31.6609 91.5569C31.5753 91.1858 31.6181 90.8289 31.7751 90.472C31.8893 90.1866 32.0749 89.9296 32.3318 89.7012C32.5888 89.4728 32.9171 89.3015 33.3168 89.2159C33.7165 89.1302 34.2018 89.1445 34.73 89.273L34.6015 89.2016C34.3017 89.016 34.0733 88.8305 33.9306 88.6306C33.7878 88.4451 33.6879 88.2309 33.6594 88.0025C33.6166 87.7742 33.6308 87.4887 33.6879 87.1461L33.8878 85.9327C33.9306 85.6901 33.9591 85.5045 33.9591 85.3618C33.9591 85.219 33.9449 85.1048 33.902 85.0192C33.8592 84.9335 33.7879 84.8622 33.6879 84.8336C33.5737 84.7765 33.4595 84.7765 33.3596 84.8051C33.2597 84.8336 33.1169 84.905 32.9314 85.0049L32.8172 84.8193C33.0741 84.6623 33.3168 84.5481 33.5309 84.5053ZM34.2446 89.587C33.902 89.6298 33.6308 89.7583 33.4167 89.9724C33.2026 90.1866 33.017 90.472 32.86 90.8432C32.6173 91.4284 32.5602 91.9423 32.7173 92.3563C32.8743 92.7702 33.2597 93.1128 33.902 93.384C34.1304 93.484 34.3017 93.5268 34.4445 93.5125C34.5729 93.5125 34.6871 93.4554 34.7871 93.3412C34.887 93.227 34.9869 93.0415 35.0868 92.7845L36.2002 90.1295L35.4722 89.8297C35.0012 89.6298 34.5872 89.5442 34.2446 89.587Z" fill="#292F36"/>
<path d="M22.3968 86.4467C22.5252 86.4895 22.6537 86.4609 22.7679 86.3896C22.8821 86.3182 23.0391 86.1612 23.2247 85.9328L26.8076 81.3649C26.9932 81.1365 27.1074 80.951 27.1502 80.8225C27.193 80.694 27.1787 80.5656 27.1074 80.4514C27.036 80.3372 26.8932 80.1801 26.6791 79.9946L26.8219 79.809C27.0931 80.0517 27.4642 80.3657 27.9638 80.7511C28.492 81.1651 28.8917 81.4648 29.1629 81.6504L29.0202 81.836C28.7918 81.6647 28.6062 81.5648 28.4777 81.5362C28.3493 81.4934 28.2208 81.5077 28.1066 81.5933C27.9924 81.6647 27.8354 81.8217 27.6498 82.0501L24.0669 86.618C23.8813 86.8463 23.7671 87.0319 23.7243 87.1604C23.6815 87.2889 23.6958 87.4173 23.7671 87.5315C23.8385 87.6457 23.9812 87.8027 24.1954 87.9883L24.0526 88.1739C23.8099 87.9598 23.4245 87.6457 22.8964 87.2175C22.3968 86.8321 21.9971 86.5323 21.7116 86.3325L21.8543 86.1469C22.097 86.3039 22.2683 86.4038 22.3968 86.4467Z" fill="#292F36"/>
<path d="M13.1754 76.2832C13.1183 75.6408 13.2611 74.9985 13.5894 74.3847C13.932 73.7566 14.4459 73.1999 15.1596 72.6718C15.859 72.1721 16.5585 71.8438 17.2865 71.7154C18.0145 71.5869 18.6854 71.6297 19.3135 71.8724C19.9415 72.115 20.4697 72.529 20.8837 73.1143C21.3262 73.7138 21.5688 74.3419 21.6259 74.9842C21.683 75.6266 21.5403 76.2689 21.212 76.8827C20.8694 77.5108 20.3555 78.0675 19.6418 78.5957C18.9423 79.0953 18.2429 79.4236 17.5149 79.5521C16.8012 79.6805 16.116 79.6377 15.4879 79.3951C14.8598 79.1524 14.3317 78.7384 13.9177 78.1674C13.4752 77.5536 13.2325 76.9256 13.1754 76.2832ZM15.3166 78.8241C15.8162 78.924 16.3872 78.8812 17.0153 78.6813C17.6434 78.4815 18.2714 78.1532 18.9281 77.6678C19.5847 77.1968 20.0986 76.6829 20.4554 76.1405C20.8266 75.598 21.0264 75.0556 21.055 74.5417C21.0978 74.0278 20.9693 73.571 20.6981 73.1856C20.3983 72.7859 20.0129 72.529 19.499 72.4291C18.9994 72.3292 18.4284 72.372 17.8004 72.5718C17.1723 72.7717 16.5442 73.1 15.8876 73.571C15.231 74.0421 14.7171 74.556 14.3602 75.1127C13.9891 75.6551 13.7892 76.1833 13.7464 76.7114C13.7036 77.2253 13.832 77.6821 14.1033 78.0675C14.403 78.4672 14.8027 78.7242 15.3166 78.8241Z" fill="#292F36"/>
<path d="M14.2746 59.0966C14.4458 59.2251 14.5743 59.4392 14.66 59.7247C14.7599 60.0245 14.7456 60.31 14.6314 60.5526C14.5172 60.8096 14.246 61.0523 13.832 61.2949L12.79 61.8802C12.4331 62.0943 12.1619 62.2656 11.9764 62.4083C11.7908 62.5511 11.6623 62.7224 11.5909 62.9222C11.5196 63.1221 11.5196 63.3505 11.6052 63.636L11.9335 64.7065L14.5029 63.9072C14.7884 63.8215 14.974 63.7359 15.0882 63.6502C15.2024 63.5646 15.2595 63.4504 15.2738 63.3219C15.288 63.1934 15.2452 62.9793 15.1738 62.7081L15.4022 62.6367C15.4879 62.9793 15.6164 63.4647 15.8162 64.0642C16.016 64.7065 16.1731 65.1776 16.2873 65.4774L16.0589 65.5487C15.9589 65.2775 15.8733 65.0919 15.7877 64.992C15.702 64.8921 15.5878 64.8207 15.4451 64.8207C15.3023 64.8207 15.0882 64.8493 14.817 64.9492L9.27846 66.6622C8.99297 66.7478 8.8074 66.8335 8.69321 66.9191C8.57901 67.0047 8.52191 67.1189 8.50764 67.2474C8.49336 67.3902 8.53619 67.59 8.60756 67.8612L8.37917 67.9326C8.30779 67.6185 8.17933 67.1618 7.99376 66.5622C7.90811 66.2767 7.79391 65.9484 7.67972 65.6058C7.56552 65.2632 7.47987 65.0206 7.43705 64.8921C7.25148 64.3068 7.19438 63.793 7.23721 63.3362C7.28003 62.8794 7.42277 62.5083 7.65117 62.2085C7.87956 61.9087 8.17933 61.7089 8.55046 61.5947C8.83595 61.509 9.14999 61.4805 9.49258 61.5233C9.83517 61.5661 10.1635 61.7089 10.5061 61.9658C10.8487 62.2228 11.1342 62.5939 11.3768 63.0935L11.3625 62.9508C11.3197 62.5939 11.3054 62.3084 11.3625 62.0658C11.4196 61.8231 11.5196 61.6232 11.6623 61.4519C11.8193 61.2807 12.0477 61.0951 12.3475 60.9238L13.4038 60.2957C13.6179 60.1815 13.7892 60.0673 13.8891 59.9817C13.9891 59.896 14.0747 59.8104 14.1175 59.7247C14.1604 59.6391 14.1604 59.5392 14.1318 59.4392C14.089 59.3108 14.0319 59.2251 13.9462 59.168C13.8606 59.1109 13.7178 59.0396 13.518 58.9682L13.5894 58.7541C13.8749 58.854 14.1175 58.9682 14.2746 59.0966ZM10.8629 62.9222C10.6203 62.6938 10.3348 62.5654 10.035 62.5368C9.73525 62.5083 9.39266 62.5511 9.00725 62.6796C8.39344 62.8651 7.97948 63.1649 7.75109 63.5503C7.5227 63.9357 7.5227 64.4639 7.72254 65.1062C7.79391 65.3346 7.87956 65.5059 7.96521 65.6058C8.05085 65.7058 8.17933 65.7629 8.32207 65.7629C8.46482 65.7629 8.67893 65.72 8.93587 65.6487L11.6766 64.7922L11.4482 64.0356C11.3054 63.5218 11.1056 63.1506 10.8629 62.9222Z" fill="#292F36"/>
<path d="M13.1754 45.5501C13.7179 45.3074 14.0462 44.8506 14.1889 44.1655C14.2317 43.9085 14.2317 43.6516 14.1604 43.4089C14.089 43.1663 13.9605 42.9521 13.7607 42.7666C13.5608 42.581 13.2896 42.4525 12.9328 42.3954C12.633 42.3383 12.3618 42.3669 12.1048 42.4668C11.8479 42.5667 11.591 42.7237 11.3483 42.9379C11.1056 43.152 10.8201 43.4375 10.5061 43.7943C10.1492 44.194 9.83519 44.5223 9.56397 44.7507C9.29275 44.9934 8.99299 45.1647 8.66467 45.2932C8.33636 45.4216 7.96522 45.4359 7.55126 45.3645C7.12302 45.2789 6.76616 45.1219 6.50922 44.8649C6.25228 44.608 6.06671 44.3082 5.98106 43.9514C5.89541 43.5945 5.89541 43.2234 5.96679 42.8237C6.00961 42.581 6.06671 42.3954 6.13808 42.2241C6.20945 42.0528 6.28083 41.9244 6.36647 41.8244C6.45212 41.7245 6.53777 41.6103 6.65196 41.4961C6.79471 41.3391 6.86608 41.2249 6.89463 41.1393C6.90891 41.0679 6.88036 41.0108 6.80898 40.9537C6.73761 40.8966 6.60914 40.8538 6.43785 40.7967L6.48067 40.5397C6.92318 40.6539 7.69401 40.8252 8.82169 41.0393L8.77887 41.2963C8.37918 41.2535 8.00805 41.2677 7.63691 41.3534C7.28004 41.4248 6.966 41.5818 6.70906 41.8244C6.45212 42.0528 6.28083 42.3811 6.20945 42.7808C6.15236 43.0521 6.16663 43.2947 6.238 43.5374C6.30938 43.7801 6.43785 43.9656 6.60914 44.1226C6.79471 44.2797 7.00883 44.3796 7.26577 44.4367C7.67973 44.5081 8.03659 44.451 8.33636 44.2511C8.63613 44.0513 8.92162 43.7943 9.19283 43.4946C9.46405 43.1948 9.63534 42.995 9.73526 42.895C10.135 42.4668 10.4633 42.1385 10.7345 41.8958C11.0057 41.6532 11.3055 41.4819 11.6338 41.3677C11.9621 41.2535 12.319 41.2392 12.7044 41.3106C13.1754 41.3962 13.5608 41.5818 13.8463 41.853C14.1318 42.1385 14.3174 42.4668 14.4173 42.8665C14.5172 43.2662 14.5172 43.6944 14.4316 44.1512C14.3602 44.5223 14.2746 44.8078 14.1461 45.0362C14.0319 45.2646 13.8749 45.4645 13.7036 45.65C13.5608 45.807 13.4895 45.9212 13.4609 46.0069C13.4466 46.0783 13.4752 46.1354 13.5466 46.1925C13.6179 46.2496 13.7464 46.3067 13.9177 46.3495L13.8749 46.6064C13.4609 46.4922 12.5473 46.3066 11.1342 46.0497L11.177 45.7928C11.9764 45.8641 12.633 45.7928 13.1754 45.5501Z" fill="#292F36"/>
<path d="M10.3491 33.5166C9.94938 33.3025 9.49259 33.1026 8.97871 32.9028C9.29275 32.3461 9.82091 31.3754 10.5346 29.9908C11.2484 28.6204 11.748 27.6497 12.0192 27.0645C12.4902 27.3643 12.9185 27.6212 13.3039 27.821C13.6465 28.0066 13.9462 28.1351 14.1746 28.235L14.0462 28.4777C13.4752 28.2493 13.047 28.1065 12.7472 28.0637C12.4474 28.0066 12.1762 28.0637 11.9478 28.2064C11.7194 28.3492 11.491 28.6347 11.2769 29.0629L10.9914 29.6339L16.8868 32.7029C17.1723 32.8599 17.4007 32.9313 17.5577 32.9456C17.7147 32.9599 17.8575 32.917 17.9859 32.8028C18.1144 32.6887 18.2572 32.4745 18.4285 32.1748L18.6426 32.289C18.4285 32.6458 18.1572 33.1454 17.8146 33.8021C17.4578 34.4872 17.2008 35.0154 17.0438 35.3437L16.8297 35.2295C16.9725 34.9155 17.0724 34.6728 17.0866 34.5158C17.1152 34.3445 17.0724 34.2018 16.9582 34.0733C16.844 33.9448 16.6584 33.8163 16.3729 33.6593L10.4775 30.576L10.1778 31.1327C9.94938 31.561 9.84946 31.9036 9.86373 32.1748C9.87801 32.446 9.9922 32.6887 10.2063 32.9028C10.4204 33.1169 10.7773 33.4024 11.2912 33.7307L11.1627 33.9734C10.9771 33.8592 10.6917 33.7021 10.3491 33.5166Z" fill="#292F36"/>
<path d="M20.4269 17.1152C20.6696 16.8726 20.8694 16.6442 21.0121 16.4729L21.1834 16.6442C21.0978 16.7727 21.055 16.9582 21.0692 17.1723C21.0835 17.3865 21.1406 17.6862 21.2548 18.0431L22.5538 21.9115L24.0669 23.4103C24.281 23.6102 24.438 23.7529 24.5665 23.81C24.695 23.8671 24.8234 23.8671 24.9519 23.81C25.0804 23.7529 25.2374 23.6244 25.4515 23.4389L25.6228 23.6102C25.3516 23.8528 24.9947 24.1954 24.5522 24.6379C24.0812 25.109 23.7386 25.4801 23.5245 25.7228L23.3532 25.5515C23.5387 25.3374 23.6672 25.1804 23.7243 25.0519C23.7814 24.9234 23.7814 24.7949 23.71 24.6665C23.6529 24.538 23.5102 24.3667 23.3103 24.1669L22.0542 22.925L17.2865 21.5261C17.001 21.4404 16.7869 21.4119 16.6441 21.4262C16.5014 21.4404 16.4015 21.4833 16.3301 21.5546L16.1588 21.3833C16.3872 21.1835 16.6441 20.9551 16.9011 20.6839C17.4292 20.1414 17.8146 19.756 18.0288 19.4991L18.2001 19.6704C17.8146 20.0558 17.729 20.3556 17.9431 20.5697C18.0288 20.6553 18.143 20.7124 18.3143 20.7695L22.3254 22.0114L21.2691 18.8567C21.1121 18.4 20.955 18.0859 20.7837 17.9289C20.6267 17.7719 20.4554 17.7291 20.2699 17.7861C20.0843 17.8432 19.8702 17.986 19.6132 18.2287L19.4419 18.0574C19.7845 17.7433 20.0986 17.4293 20.4269 17.1152Z" fill="#292F36"/>
<path d="M29.063 11.3626C28.9773 11.4626 28.9345 11.591 28.9631 11.7338C28.9916 11.8765 29.063 12.0764 29.2057 12.3333L31.9607 17.4436C32.1035 17.7005 32.2177 17.8718 32.3319 17.9717C32.4318 18.0717 32.5603 18.1002 32.6887 18.0859C32.8172 18.0717 33.017 17.986 33.2597 17.8575L34.0163 17.4436C34.4445 17.2152 34.7443 16.9725 34.9013 16.7299C35.0583 16.4872 35.1154 16.216 35.0726 15.8877C35.0298 15.5594 34.9013 15.1454 34.6729 14.603L34.9156 14.4745C35.0155 14.7029 35.1582 14.9884 35.3438 15.331C35.5579 15.7164 35.8148 16.1446 36.1289 16.6157C35.6578 16.8441 34.8585 17.258 33.7593 17.8575C32.4461 18.5713 31.4468 19.1137 30.7902 19.4991L30.676 19.2993C30.9187 19.1565 31.09 19.0281 31.1756 18.9281C31.2613 18.8282 31.3041 18.6997 31.2755 18.557C31.247 18.4143 31.1756 18.2144 31.0329 17.9575L28.2493 12.8472C28.1066 12.5902 27.9924 12.419 27.8782 12.319C27.7783 12.2191 27.6498 12.1906 27.5213 12.2048C27.3786 12.2191 27.193 12.2905 26.9361 12.419L26.8362 12.2048C27.1359 12.0764 27.5784 11.848 28.1637 11.5197C28.7204 11.2199 29.1486 10.9772 29.4484 10.7917L29.5626 10.9915C29.3199 11.1342 29.1629 11.2627 29.063 11.3626Z" fill="#292F36"/>
<path d="M46.4494 12.2761C46.535 12.7043 46.6635 13.1897 46.8205 13.7321C46.2923 13.8177 45.4216 13.9748 44.194 14.2174C42.7237 14.5029 41.6246 14.7313 40.868 14.9026L40.8252 14.6742C41.0964 14.6028 41.2963 14.5457 41.4105 14.4601C41.5247 14.3887 41.596 14.2745 41.6103 14.146C41.6246 14.0033 41.6103 13.7892 41.5532 13.5037L40.4398 7.80815C40.3827 7.52266 40.3256 7.32282 40.2399 7.19435C40.1543 7.06588 40.0686 6.9945 39.9259 6.98023C39.7974 6.95168 39.5833 6.96595 39.3121 7.00878L39.2693 6.78039C40.0258 6.65191 41.1392 6.45207 42.5952 6.16658C43.7229 5.93819 44.5223 5.78117 44.9791 5.66697C45.0219 6.18085 45.0933 6.63764 45.1647 7.03733C45.2218 7.33709 45.2789 7.56549 45.336 7.73678L45.079 7.79388C44.922 7.30854 44.7792 6.95168 44.6508 6.72329C44.5223 6.49489 44.3367 6.35215 44.1226 6.28078C43.8942 6.2094 43.5945 6.2094 43.1805 6.29505L42.2241 6.48062C41.9529 6.53772 41.753 6.59482 41.6388 6.66619C41.5247 6.73756 41.4533 6.83748 41.4247 6.98023C41.4105 7.12297 41.4247 7.33709 41.4818 7.62258L42.01 10.3347L42.7665 10.1777C43.152 10.1064 43.3803 9.93506 43.466 9.67812C43.5516 9.42117 43.5802 9.17851 43.5659 8.93584C43.5516 8.69317 43.5374 8.53615 43.5374 8.46478L43.7943 8.40768C43.8371 8.79309 43.8942 9.14996 43.9656 9.49255L44.0798 10.035C44.1512 10.4204 44.2796 10.9628 44.4652 11.648L44.2083 11.7051C44.194 11.648 44.1369 11.4767 44.037 11.1627C43.937 10.8486 43.7943 10.6345 43.5802 10.506C43.3661 10.3776 43.1234 10.349 42.8094 10.4061L42.0528 10.5489L42.5952 13.3038C42.6523 13.5893 42.7094 13.7892 42.7808 13.9177C42.8522 14.0318 42.9521 14.1032 43.0949 14.1318C43.2233 14.146 43.4374 14.1318 43.7087 14.0747L44.5509 13.9034C45.0219 13.8035 45.3788 13.675 45.6072 13.5037C45.8356 13.3324 45.964 13.0897 46.0211 12.79C46.0782 12.4902 46.0782 12.062 46.0354 11.5053L46.2923 11.4482C46.3352 11.6623 46.378 11.9335 46.4494 12.2761Z" fill="#292F36"/>
<path d="M36.8283 66.7905C36.1717 65.9055 35.6007 64.9348 35.1011 63.8643C34.6015 62.7937 34.2018 61.7088 33.902 60.5954C33.2454 55.6992 33.2311 50.9458 33.8449 46.3351C34.4587 41.7244 35.4579 37.1852 36.8283 32.7029C37.0567 32.2033 37.5563 31.9607 38.3271 31.9607C39.0979 31.9607 39.8545 32.132 40.6253 32.4746C41.3961 32.8171 42.0242 33.2739 42.5238 33.8449C43.0234 34.4159 43.1376 35.0154 42.8664 35.6292C42.4382 36.5428 42.0242 37.7847 41.6103 39.3263C41.1963 40.8823 40.7823 42.5952 40.4112 44.4652C40.0258 46.3351 39.6975 48.305 39.412 50.3463C39.1265 52.3875 38.9124 54.3574 38.7839 56.2274C38.6554 58.0973 38.6269 59.796 38.6983 61.3091C38.7696 62.8222 38.998 64.0213 39.3834 64.892C41.182 62.4796 42.8236 59.9816 44.3224 57.3979C45.8213 54.8142 47.2202 52.202 48.5334 49.5326C49.8467 46.8776 51.1028 44.1939 52.2876 41.4675C53.4724 38.7553 54.6429 36.0717 55.7849 33.4309C56.3559 32.0891 56.9268 30.676 57.4836 29.1914C58.0403 27.6926 58.7683 26.4222 59.6961 25.3516C60.0815 25.009 60.3813 24.8948 60.5811 25.009C60.7952 25.1232 60.938 25.3373 61.0094 25.6656C61.0807 25.9939 61.1236 26.3365 61.1236 26.6934C61.1236 27.0502 61.1236 27.3357 61.1236 27.5213C60.8523 29.2771 60.624 31.0186 60.4384 32.7458C60.2528 34.473 59.8388 36.1288 59.2393 37.7419C58.2401 40.2684 57.2266 42.7665 56.1703 45.2645C55.114 47.7483 53.9863 50.2035 52.7872 52.6159C51.5882 55.0283 50.2749 57.3693 48.8903 59.639C47.4914 61.9229 45.9783 64.0927 44.3224 66.1482C43.0234 67.7898 41.7245 68.6605 40.454 68.7604C39.1265 68.8746 37.9417 68.2037 36.8283 66.7905Z" fill="#292F36"/>
<path d="M60.4669 60.3099C59.6961 59.2393 58.9396 58.1544 58.1973 57.041C57.455 55.9276 57.0839 54.7143 57.0839 53.3725C57.0839 51.8879 57.5121 50.4747 58.3686 49.1472C59.225 47.8339 60.21 46.7634 61.3234 45.964C61.7802 45.6642 62.2512 45.4073 62.7223 45.2217C63.1934 45.0361 63.7072 45.0504 64.2497 45.2788C64.4781 45.393 64.7207 45.4786 64.9634 45.5357C65.2061 45.5928 65.4345 45.6642 65.62 45.7356C65.8056 45.807 66.0197 45.9212 66.2481 46.0782C66.4765 46.2352 66.5907 46.435 66.5907 46.7063C66.5907 47.7769 66.6192 48.6476 66.6763 49.3185C66.7334 49.9894 66.8191 50.5604 66.9333 51.0457C67.0475 51.5311 67.1617 51.945 67.2759 52.3019C67.3901 52.673 67.5043 53.0584 67.6185 53.4724C67.6898 53.8578 67.6756 54.1861 67.5614 54.4431C67.4472 54.7143 67.1617 54.7428 66.7049 54.5573C65.8627 54.2575 65.2346 53.6437 64.8349 52.7158C64.4352 51.788 64.1355 50.9601 63.9499 50.1892C63.9071 50.0322 63.8214 49.7753 63.6644 49.3899C63.5074 49.0045 63.4218 48.7332 63.3789 48.5905C63.0792 48.5191 62.708 48.619 62.2941 48.9045C61.8801 49.19 61.4947 49.5897 61.1807 50.0751C60.8523 50.5747 60.6382 51.1456 60.5526 51.8023C60.4526 52.4589 60.5811 53.1013 60.9237 53.7579C61.0807 53.9863 61.2948 54.2718 61.5803 54.5858C61.8658 54.9141 62.1513 55.2424 62.4368 55.585C62.7223 55.9276 63.0078 56.2702 63.2933 56.5842C63.5788 56.8983 63.8214 57.1695 64.007 57.3551C64.2354 57.5835 64.3924 57.7119 64.4638 57.7262C64.5352 57.7405 64.735 57.6977 65.0348 57.5835C65.4202 57.3979 66.0054 57.1409 66.7906 56.8412C67.5757 56.5414 68.4036 56.2274 69.26 55.9276C70.1165 55.6278 70.9444 55.3709 71.7295 55.1568C72.5146 54.9427 73.1142 54.8427 73.5424 54.8427C73.8136 54.8427 73.9992 54.9427 74.1134 55.1282C74.2276 55.2424 74.2133 55.3995 74.0563 55.585C73.8993 55.7706 73.6994 55.9704 73.4567 56.156C73.2141 56.3416 72.9429 56.5129 72.6859 56.6699C72.4147 56.8269 72.2434 56.9126 72.1721 56.9554C71.5154 57.3408 70.7018 57.769 69.7026 58.2544C68.7033 58.7254 67.8469 59.1965 67.1189 59.6533C67.0475 59.7246 66.9047 59.8103 66.6906 59.8817C66.4765 59.953 66.3195 60.0387 66.2053 60.1101C66.6621 61.1378 66.9904 62.0371 67.176 62.7794C67.3615 63.5217 67.4329 64.2354 67.3758 64.9348C67.3187 65.62 67.176 66.3195 66.9476 67.0332C66.7192 67.7469 66.4051 68.5606 66.034 69.4741C65.4916 70.3592 64.9491 71.2014 64.3924 72.0007C63.8357 72.8001 63.2219 73.5281 62.5225 74.1847C61.8373 74.8414 61.0807 75.3552 60.2814 75.7264C59.482 76.1118 58.597 76.2974 57.6406 76.2974C57.0981 76.2974 56.5843 76.226 56.0846 76.0975C55.585 75.9691 55.1711 75.6836 54.8285 75.2696C53.9435 74.3132 53.4581 73.2712 53.3439 72.1435C53.2297 71.0158 53.3297 69.9024 53.6294 68.789C53.8578 68.1038 54.1433 67.4757 54.4859 66.8905C55.3281 65.4345 56.2559 64.2068 57.2694 63.1934C58.2972 62.1941 59.3535 61.2235 60.4669 60.3099ZM62.4225 62.8936C61.9943 63.3218 61.4233 63.9214 60.6953 64.7065C59.9673 65.4916 59.2964 66.348 58.6541 67.2616C58.026 68.1752 57.5121 69.0887 57.1124 69.988C56.7127 70.8873 56.6128 71.6581 56.7984 72.3148C57.5692 71.9722 58.3543 71.4012 59.1537 70.6161C59.953 69.831 60.6668 68.9745 61.2806 68.0324C61.8944 67.0903 62.3226 66.1624 62.5653 65.2489C62.808 64.321 62.7651 63.5359 62.4225 62.8936Z" fill="#292F36"/>
<path d="M51.1599 83.5489C33.3025 83.5489 18.771 69.0174 18.771 51.16C18.771 33.3025 33.3025 18.771 51.1599 18.771C69.0174 18.771 83.5489 33.3025 83.5489 51.16C83.5489 69.0174 69.0174 83.5489 51.1599 83.5489ZM51.1599 20.1985C34.0876 20.1985 20.1985 34.0876 20.1985 51.16C20.1985 68.2323 34.0876 82.1214 51.1599 82.1214C68.2323 82.1214 82.1214 68.2323 82.1214 51.16C82.1214 34.0876 68.2323 20.1985 51.1599 20.1985Z" fill="#292F36"/>
</svg>
