<svg width="21" height="20" viewBox="0 0 21 20" fill="none" xmlns="http://www.w3.org/2000/svg">
<path d="M8.21312 1.38194C8.81182 -0.460685 11.4186 -0.460687 12.0173 1.38193L13.0339 4.51061C13.3017 5.33466 14.0696 5.89258 14.936 5.89258H18.2257C20.1632 5.89258 20.9687 8.37181 19.4013 9.51061L16.7399 11.4442C16.0389 11.9535 15.7456 12.8563 16.0133 13.6803L17.0299 16.809C17.6286 18.6516 15.5196 20.1839 13.9522 19.0451L11.2908 17.1114C10.5898 16.6021 9.64064 16.6021 8.93966 17.1114L6.27825 19.0451C4.71083 20.1839 2.60186 18.6516 3.20057 16.809L4.21714 13.6803C4.48489 12.8563 4.19157 11.9535 3.49059 11.4442L0.829185 9.51061C-0.738242 8.37181 0.0673075 5.89258 2.00475 5.89258H5.29444C6.16089 5.89258 6.9288 5.33466 7.19655 4.51061L8.21312 1.38194Z" fill="#FFA928"/>
</svg>
