<svg width="72" height="72" viewBox="0 0 72 72" fill="none" xmlns="http://www.w3.org/2000/svg">
<circle cx="35.8959" cy="35.8959" r="35.8959" fill="white"/>
<path d="M49.7018 36.5863C49.7018 28.5805 43.2112 22.0898 35.2054 22.0898C27.1996 22.0898 20.709 28.5805 20.709 36.5863C20.709 44.592 27.1996 51.0827 35.2054 51.0827C43.2112 51.0827 49.7018 44.592 49.7018 36.5863Z" stroke="#CDA274" stroke-width="2" stroke-miterlimit="10"/>
<path d="M48.9392 30.8305C47.8174 30.8375 47.9278 32.9193 46.5301 31.9371C46.0111 31.5731 45.6918 31.0441 45.0401 30.8832C44.4709 30.7427 43.8876 30.8888 43.3253 30.9865C42.6862 31.0975 41.9283 31.1474 41.4435 31.6343C40.9748 32.1029 40.7269 32.7317 40.2281 33.2032C39.2635 34.1165 38.8563 35.1135 39.4807 36.4049C40.0814 37.6464 41.3381 38.3202 42.6939 38.2316C44.0259 38.1424 45.4097 37.3653 45.3712 39.3122C45.3573 40.0008 45.5005 40.4786 45.7107 41.1186C45.9056 41.7088 45.8923 42.2807 45.937 42.8899C46.0194 44.0281 46.2276 45.304 46.7892 46.3094L47.837 44.8227C47.9662 44.6386 48.2365 44.3808 48.3008 44.1637C48.4146 43.7794 48.1904 43.1189 48.1646 42.6882C48.1387 42.2575 48.1513 41.8212 48.0856 41.3905C47.9934 40.787 47.6386 40.2214 47.5897 39.6249C47.4996 38.5141 47.7015 37.6274 46.8507 36.6986C46.0292 35.8028 44.825 35.5878 43.6746 35.7697C43.0948 35.8611 40.7611 36.2363 41.6978 34.9034C41.8829 34.6414 42.2063 34.4264 42.4145 34.177C42.5954 33.9599 42.7525 33.5608 42.9649 33.3915C43.1772 33.2221 44.1523 33.0275 44.4317 33.1139C44.7111 33.2003 45.0024 33.6057 45.2448 33.7856C45.6926 34.1249 46.2152 34.3505 46.7682 34.4432C47.7224 34.5838 49.7173 34.0259 49.702 32.7949C49.6992 32.2048 49.1544 31.3827 48.9392 30.8305ZM37.8944 40.9591C37.5221 39.3825 35.3924 38.8556 34.244 38.0005C33.5839 37.5087 32.9965 36.7492 32.1296 36.6873C31.7301 36.6585 31.3955 36.7457 30.9994 36.6424C30.6362 36.5482 30.3512 36.3515 29.9643 36.4028C29.2413 36.4983 28.7852 37.2754 28.0084 37.17C27.2715 37.0703 26.5122 36.2032 26.3446 35.4971C26.1295 34.5894 26.8433 34.295 27.6082 34.2142C27.9274 34.1805 28.2857 34.1439 28.5924 34.2613C28.9961 34.4123 29.1868 34.81 29.5493 35.0109C30.229 35.3854 30.3666 34.7868 30.2625 34.1798C30.1068 33.2706 29.9251 32.8996 30.7312 32.2743C31.29 31.8429 31.7678 31.531 31.6784 30.756C31.6253 30.3007 31.3773 30.0949 31.6085 29.6417C31.7839 29.2967 32.2651 28.9855 32.5788 28.7796C33.3883 28.2484 36.0469 28.2878 34.9607 26.8011C34.6415 26.3648 34.0526 25.5849 33.4938 25.4781C32.7953 25.3453 32.4852 26.1294 31.9983 26.4751C31.4954 26.8327 30.5161 27.2388 30.0125 26.6859C29.3349 25.9418 30.4616 25.6973 30.711 25.1781C30.9603 24.6589 30.1333 23.6773 29.6904 23.4286L27.6082 25.7774C27.5484 26.1708 27.5692 26.5723 27.6694 26.9572C27.7696 27.3422 27.947 27.7024 28.1907 28.0159C28.605 28.552 29.2644 28.7241 29.2944 29.4562C29.3237 30.1588 29.2148 30.5185 28.7579 31.0125C28.5603 31.2232 28.4206 31.5225 28.2194 31.72C27.9728 31.961 28.0643 31.8872 27.6794 31.9532C26.9558 32.0762 26.3397 32.2659 25.6405 32.4598C24.4754 32.7837 24.3678 30.8691 23.8369 30.118L22.0907 31.5366C22.0718 31.7692 22.3771 32.197 22.4602 32.45C22.9373 33.8952 23.8998 35.013 24.5215 36.3958C25.176 37.86 26.9334 37.4539 27.7095 38.7368C28.3982 39.875 27.6627 41.3161 28.1782 42.5077C28.5526 43.3726 29.4355 43.5616 30.0446 44.1939C30.667 44.8326 30.6537 45.7066 30.7487 46.5378C30.8558 47.5154 31.0297 48.4845 31.2691 49.4381C31.3536 49.7676 31.4311 50.2032 31.6553 50.4751C31.809 50.662 32.3364 50.8229 32.1233 50.8847C32.4209 50.9339 32.9511 51.2136 33.199 51.0084C33.5259 50.7386 33.4386 49.9081 33.4952 49.5329C33.6649 48.4158 34.221 47.3233 34.9712 46.4872C35.7123 45.6623 36.7279 45.1038 37.3538 44.1686C37.9636 43.2566 38.1473 42.0264 37.8944 40.9591ZM35.5621 42.8084C35.143 43.5609 34.2098 44.0646 33.6098 44.6625C33.447 44.8248 33.1006 45.3869 32.8966 45.2654C32.7506 45.1782 32.701 44.4489 32.6472 44.2817C32.3698 43.4397 31.84 42.7046 31.1308 42.1774C30.9121 42.0109 30.3701 41.7945 30.2451 41.5662C30.1054 41.3182 30.2311 40.7329 30.236 40.4631C30.2437 40.0696 30.0655 39.4155 30.1619 39.0579C30.2737 38.6455 30.0586 38.8942 30.4253 38.8127C30.6188 38.7691 31.4178 38.9104 31.6588 38.9609C32.0416 39.041 32.2526 39.2806 32.5543 39.523C33.3478 40.1631 34.2217 40.6584 35.1109 41.1488C35.7996 41.5325 36.0022 42.0179 35.5621 42.8084ZM30.7005 23.4497C31.0316 23.775 31.3431 24.16 31.837 24.1923C32.3043 24.224 32.745 23.9696 33.1529 24.2893C33.6056 24.6406 33.9318 25.0853 34.5325 25.1949C35.1137 25.301 35.729 24.9596 35.8729 24.3617C36.0126 23.7919 35.7116 23.1722 35.6934 22.6002C35.6934 22.5209 35.736 22.1681 35.6815 22.1084C35.641 22.0635 35.3029 22.114 35.2513 22.1155C34.8727 22.1267 34.495 22.1529 34.1183 22.1941C32.7449 22.3437 31.3999 22.6903 30.1242 23.2235C30.294 23.3415 30.507 23.3886 30.7005 23.4497ZM42.7106 27.3969C43.3037 27.3969 43.9058 27.1299 43.7144 26.4399C43.5537 25.8617 43.2799 25.2343 42.6135 25.5462C42.1895 25.7444 41.5888 26.2488 41.5392 26.7491C41.4826 27.3168 42.3153 27.3969 42.7106 27.3969ZM42.237 30.4159C42.8426 30.7806 43.7409 30.6092 44.1977 30.0885C44.5547 29.681 44.7649 28.9735 45.4069 28.9742C45.6895 28.9736 45.961 29.0849 46.1626 29.2841C46.4281 29.5602 46.3757 29.8194 46.4323 30.1651C46.5587 30.9415 47.3864 30.2094 47.6023 29.9087C47.742 29.7126 47.9313 29.4218 47.8677 29.1667C47.809 28.9285 47.5324 28.6749 47.4095 28.4564C47.0504 27.8241 46.755 27.0884 46.2171 26.5777C45.6995 26.0858 45.0632 26.1427 44.5721 26.6535C44.1698 27.0751 43.7025 27.4088 43.4273 27.9217C43.2331 28.2822 43.0145 28.4543 42.6212 28.5477C42.4047 28.599 42.1574 28.618 41.9758 28.7641C41.4701 29.1646 41.7579 30.1265 42.237 30.4159Z" fill="#CDA274"/>
</svg>
